<?xml version="1.0" encoding="UTF-8" standalone="no"?>
<svg
   id="Layer_1"
   data-name="Layer 1"
   width="319.9238"
   height="126.86253"
   viewBox="0 0 319.9238 126.86253"
   version="1.1"
   sodipodi:docname="ibm-dark.svg"
   inkscape:version="1.4.2 (ebf0e940d0, 2025-05-08)"
   xmlns:inkscape="http://www.inkscape.org/namespaces/inkscape"
   xmlns:sodipodi="http://sodipodi.sourceforge.net/DTD/sodipodi-0.dtd"
   xmlns="http://www.w3.org/2000/svg"
   xmlns:svg="http://www.w3.org/2000/svg">
  <sodipodi:namedview
     id="namedview33"
     pagecolor="#ffffff"
     bordercolor="#999999"
     borderopacity="1"
     inkscape:showpageshadow="2"
     inkscape:pageopacity="0"
     inkscape:pagecheckerboard="0"
     inkscape:deskcolor="#d1d1d1"
     inkscape:zoom="1.3385417"
     inkscape:cx="159.87549"
     inkscape:cy="63.128405"
     inkscape:window-width="1854"
     inkscape:window-height="1003"
     inkscape:window-x="0"
     inkscape:window-y="0"
     inkscape:window-maximized="1"
     inkscape:current-layer="Layer_1" />
  <defs
     id="defs1">
    <style
       id="style1">
      .cls-1 {
        fill: #fff;
      }
    </style>
  </defs>
  <g
     id="g33"
     transform="translate(-128.03819,-224.569)">
    <rect
       class="cls-1"
       x="128.03819"
       y="343.35379"
       width="62.197899"
       height="8.0776997"
       id="rect2" />
    <rect
       class="cls-1"
       x="128.03819"
       y="326.39081"
       width="62.197899"
       height="8.0775995"
       id="rect3" />
    <rect
       class="cls-1"
       x="145.8092"
       y="309.4277"
       width="26.656"
       height="8.0775995"
       id="rect4" />
    <rect
       class="cls-1"
       x="145.8092"
       y="292.46469"
       width="26.656"
       height="8.0775995"
       id="rect5" />
    <rect
       class="cls-1"
       x="145.8092"
       y="275.50159"
       width="26.656"
       height="8.0776997"
       id="rect6" />
    <rect
       class="cls-1"
       x="145.8092"
       y="258.53851"
       width="26.656"
       height="8.0776997"
       id="rect7" />
    <rect
       class="cls-1"
       x="128.03819"
       y="241.57561"
       width="62.197899"
       height="8.0775995"
       id="rect8" />
    <rect
       class="cls-1"
       x="128.03819"
       y="224.6125"
       width="62.197899"
       height="8.0775995"
       id="rect9" />
    <path
       class="cls-1"
       d="m 199.1216,343.3538 v 8.0777 h 65.429 v 0 a 33.7825,33.7825 0 0 0 21.9618,-8.0775 z"
       id="path9" />
    <path
       class="cls-1"
       d="m 199.1216,326.3908 v 8.0776 h 94.805 a 33.7192,33.7192 0 0 0 3.3665,-8.0776 z"
       id="path10" />
    <rect
       class="cls-1"
       x="216.89259"
       y="309.4277"
       width="26.656"
       height="8.0775995"
       id="rect10" />
    <path
       class="cls-1"
       d="m 287.1111,292.4647 h -70.2185 v 8.0776 H 293.63 a 34.0569,34.0569 0 0 0 -6.5189,-8.0776 z"
       id="path11" />
    <path
       class="cls-1"
       d="m 216.8926,275.5016 v 8.0777 h 70.51 a 34.0468,34.0468 0 0 0 6.5187,-8.0777 z"
       id="path12" />
    <path
       class="cls-1"
       d="m 297.2931,249.6532 a 33.7036,33.7036 0 0 0 -3.3665,-8.0776 h -94.805 v 8.0776 z"
       id="path13" />
    <path
       class="cls-1"
       d="m 286.5124,232.69 a 33.7831,33.7831 0 0 0 -21.9618,-8.0776 h -65.429 v 8.0776 z"
       id="path14" />
    <rect
       class="cls-1"
       x="216.89259"
       y="258.53851"
       width="26.656"
       height="8.0776997"
       id="rect14" />
    <path
       class="cls-1"
       d="m 268.5894,266.6162 h 28.8992 a 33.93,33.93 0 0 0 0.9879,-8.0777 h -29.8871 z"
       id="path15" />
    <path
       class="cls-1"
       d="m 268.5894,309.4277 v 8.0776 h 29.8871 a 33.9294,33.9294 0 0 0 -0.9879,-8.0776 z"
       id="path16" />
    <polygon
       class="cls-1"
       points="305.746,232.646 358.63,232.646 355.828,224.569 305.746,224.569 "
       id="polygon16" />
    <rect
       class="cls-1"
       x="305.7464"
       y="343.3511"
       width="44.442101"
       height="8.0804005"
       id="rect16" />
    <rect
       class="cls-1"
       x="305.7464"
       y="326.38211"
       width="44.442101"
       height="8.0804005"
       id="rect17" />
    <rect
       class="cls-1"
       x="323.52301"
       y="309.41339"
       width="26.6656"
       height="8.0804005"
       id="rect18" />
    <rect
       class="cls-1"
       x="323.52301"
       y="292.4444"
       width="26.6656"
       height="8.0804005"
       id="rect19" />
    <rect
       class="cls-1"
       x="403.51941"
       y="343.3511"
       width="44.442402"
       height="8.0804005"
       id="rect20" />
    <rect
       class="cls-1"
       x="403.51941"
       y="326.38211"
       width="44.442402"
       height="8.0804005"
       id="rect21" />
    <rect
       class="cls-1"
       x="403.51941"
       y="309.41339"
       width="26.6653"
       height="8.0804005"
       id="rect22" />
    <rect
       class="cls-1"
       x="403.51941"
       y="292.4444"
       width="26.6653"
       height="8.0804005"
       id="rect23" />
    <polygon
       class="cls-1"
       points="430.185,275.476 403.519,275.476 380.203,275.476 377.399,283.556 400.802,283.556 403.519,275.86 403.519,283.556 430.185,283.556 "
       id="polygon23" />
    <polygon
       class="cls-1"
       points="323.523,275.476 323.523,283.556 350.189,283.556 350.189,275.86 352.905,283.556 376.309,283.556 373.505,275.476 350.189,275.476 "
       id="polygon24" />
    <polygon
       class="cls-1"
       points="383.286,266.587 430.185,266.587 430.185,258.507 386.089,258.507 "
       id="polygon25" />
    <polygon
       class="cls-1"
       points="447.962,232.649 447.962,224.569 397.863,224.569 395.06,232.649 "
       id="polygon26" />
    <polygon
       class="cls-1"
       points="374.016,343.351 376.837,351.431 379.691,343.351 "
       id="polygon27" />
    <polygon
       class="cls-1"
       points="385.682,326.382 368.026,326.382 370.878,334.463 382.829,334.463 "
       id="polygon28" />
    <polygon
       class="cls-1"
       points="391.673,309.413 362.035,309.413 364.887,317.494 388.821,317.494 "
       id="polygon29" />
    <polygon
       class="cls-1"
       points="397.664,292.444 356.044,292.444 358.897,300.525 394.811,300.525 "
       id="polygon30" />
    <polygon
       class="cls-1"
       points="367.618,258.507 323.523,258.507 323.523,266.587 370.422,266.587 "
       id="polygon31" />
    <polygon
       class="cls-1"
       points="447.962,241.538 391.976,241.538 389.173,249.618 447.962,249.618 "
       id="polygon32" />
    <polygon
       class="cls-1"
       points="305.746,249.618 364.535,249.618 361.732,241.538 305.746,241.538 "
       id="polygon33" />
  </g>
</svg>
