<svg xmlns="http://www.w3.org/2000/svg" id="Layer_1" data-name="Layer 1" viewBox="0 0 2498 846"><defs><style>.cls-1{fill:#00beff}.cls-2{fill:#012636}</style></defs><path d="M591.3 1.35c-20 4.3-37.6 22.1-41.8 42.2-2 9.3-1.9 15.6.5 24.7 2.7 10.7 6.3 16.9 14.5 25.2 10.6 10.8 23.6 16.4 37.8 16.4 6.4 0 6.5.1 10.6 4.5 6.3 6.8 13.6 18.7 17 27.3 5.1 13.2 9.6 38.1 12.6 69.2 1.6 17.2 3.5 48.2 3.5 56.9l-.1 5.6-9.5 8c-27.3 22.8-52.1 54.9-68.9 89-8.4 17.1-18.1 41.8-17 43.5.3.6 2.9-1.8 5.7-5.3 8.3-10.1 27.4-28.5 40.9-39.3 42.1-33.8 91.8-56.5 142.9-65.3 21.7-3.8 32.1-4.6 58-4.6 21.3.1 28 .5 41 2.4 50 7.4 97.6 27.4 139.3 58.4 21.5 16 44.1 37.1 56 52.4 2.3 2.9 4.5 4.9 4.9 4.5.9-.9-1.9-11.3-6.1-22.8A269.6 269.6 0 0 0 950.8 278c-6.7-5.5-7.8-6.8-7.8-9.5 0-18.1 4.1-67 7.5-88.7 5.2-33.6 11.3-49.2 25.4-65.2l4.3-4.7h6.7c14.5 0 28.2-6.1 38.7-17.3 20.9-22.1 20.4-54.7-1.1-76.2-21.8-21.8-55.1-21.8-77.1 0-13.9 13.8-19.3 32.5-14.9 51.3 1.8 7.5 6.3 16.8 10.6 21.7l3.2 3.6-.6 14.2c-.6 16.4-3 27.1-10.3 47.4-9 25.1-22.2 48.6-34.1 61-10.4 10.7-24.1 18.1-32.1 17-2-.2-9.8-2-17.2-4-21.2-5.5-34.3-7.1-58.5-7.1-26.1 0-40.9 2-64.9 9-10.6 3.1-14.2 2.9-23.4-1.7-17.8-8.7-35.5-33.5-49.6-69.3-7.7-19.4-11.7-36.6-12.3-52.6l-.5-13.5 3.9-5.1a54.84 54.84 0 0 0 5.1-58.8C647.3 21 636.2 10.1 628 6.1a55.23 55.23 0 0 0-36.7-4.75" class="cls-1"/><path d="M1870 535.85v307h131v-614h-131ZM0 550.85v293h94l.2-194.1.3-194L237 649.55l142.5 193.8 46.8.3 46.7.2v-586h-94l-.2 194-.3 194.15L236 452 93.5 258H46.8L0 257.85ZM2279.7 374.35a204.35 204.35 0 0 0-155 111.1c-6 12.1-12 27.5-11 28.5.7.7 36.6 15.9 37.6 15.9.3 0 3.5-4.5 7.1-9.9 19.8-29.8 50.4-50.3 84.5-56.6 12.3-2.2 32.9-2 45.4.6 27.4 5.5 54.7 22.2 73.9 45.2l4.8 5.8-.2 23.7-.3 23.7-3 .3c-7.1.8-35.4 6.7-51.9 10.8-33.4 8.5-60.2 18.3-89.1 32.4-44.1 21.6-76 47.2-96 77.1-22.5 33.4-24.8 67.6-7 102.9 7.4 14.5 20.6 30 33.6 39.2 8.9 6.4 21.4 12.2 33.4 15.5 9.4 2.6 11.2 2.8 30 2.8 22.4-.1 30.5-1.4 50.4-8.1 32.7-11 68.2-35.3 93.2-63.6l6.9-7.8v77h131v-326.1l-3.6-9.7c-15.3-41.1-46.2-78.6-84.6-102.4-37.9-23.5-86.8-34.2-130.1-28.3m87.3 279.5c0 34.8-.1 37.4-2.1 43.2-10.7 32-36.6 55.3-66.4 59.8-20.1 3.1-39.9-4.1-55.5-20-11.5-11.7-17.4-23.3-18.7-36.5-2.9-31.4 35.9-63.8 92.2-77 14.9-3.5 32.7-6 44.3-6.3l6.2-.2Z" class="cls-2"/><path d="M771.5 375.45c-28.3 3.8-59.2 15.4-83 31.1a217.85 217.85 0 0 0-62.7 64.5c-8.6 13.9-21.4 42.5-19.7 44.2.3.3 9.1 4.2 19.5 8.5 16.6 7 19 7.8 19.9 6.4 12.8-20.6 25.9-34.8 42-45.5 54.6-36.3 120.4-26.7 165.7 24.2l5.8 6.4v23.8c0 18.2-.3 24-1.2 24.2-.7.2-8.3 1.6-16.8 3.1-74.3 13-144.4 43-188.6 80.8-44.9 38.3-61.3 81-47.4 122.9a109.1 109.1 0 0 0 25.8 43c17.5 18.3 37.2 28.1 63.5 31.7 10.7 1.5 19.5 1.4 32.9-.4 42.4-5.5 85.3-29.1 120.8-66.2l11-11.5.2 37.8.3 37.9h131l.3-163 .2-163-2.6-7.5c-1.4-4.1-5.4-13.4-8.9-20.5-10.6-21.9-23.4-39.4-41.6-57.1a202.5 202.5 0 0 0-117.9-56.4c-11.4-1.4-36.2-1.1-48.5.6m87.5 280.4v37.9l-2.9 8c-9.7 26.5-30.2 46.3-56.1 54.2a62.6 62.6 0 0 1-37.1-.8c-25.6-8.9-45.6-33.8-45.8-56.9-.4-29.6 36.3-59.4 89.6-72.7 13.8-3.5 36-6.9 49.1-7.5l3.2-.2Z" class="cls-1"/><path d="M1349.5 376c-15.4 2-36 9-49.6 17-16.9 9.8-34.3 25.5-44.9 40.3l-5.5 7.7-.3-28.5-.2-28.6h-131v460h131V505.35l3.6-5.4c5.1-7.6 14.9-16.9 22.5-21.4 18.2-10.7 38.2-11.2 57.9-1.6 11.8 5.8 23.8 17.8 29.8 29.8l4.2 8.3v328.8h131v-161.3c0-135.1.3-162.3 1.4-167.9a64.9 64.9 0 0 1 15-28.5c21.2-22.7 62-21.2 84.5 3.3 5 5.3 12 16.1 15 22.8l2.1 4.9v326.7h130.7l.6-30.3c.4-16.6 1-79.2 1.3-139.2.7-113.6-.1-158-3.2-178.3-6.8-45.5-35.1-86-74-105.9-17.7-9.1-33.9-13.5-53.9-14.9-43.5-2.9-90.3 24.6-125.1 73.4l-6.6 9.2-3.7-7.3c-14-27.8-40.4-53.3-67.3-64.9a125.7 125.7 0 0 0-65.3-9.65" class="cls-2"/></svg>