<?xml version="1.0" encoding="UTF-8" standalone="no"?>
<svg
   id="Logo"
   viewBox="0 0 2420.2486 459.59761"
   version="1.1"
   sodipodi:docname="nvidia.svg"
   width="2420.2485"
   height="459.5976"
   inkscape:version="1.4.2 (ebf0e940d0, 2025-05-08)"
   xmlns:inkscape="http://www.inkscape.org/namespaces/inkscape"
   xmlns:sodipodi="http://sodipodi.sourceforge.net/DTD/sodipodi-0.dtd"
   xmlns="http://www.w3.org/2000/svg"
   xmlns:svg="http://www.w3.org/2000/svg">
  <sodipodi:namedview
     id="namedview1"
     pagecolor="#ffffff"
     bordercolor="#999999"
     borderopacity="1"
     inkscape:showpageshadow="2"
     inkscape:pageopacity="0"
     inkscape:pagecheckerboard="0"
     inkscape:deskcolor="#d1d1d1"
     inkscape:zoom="0.40639287"
     inkscape:cx="1210.6512"
     inkscape:cy="230.07294"
     inkscape:window-width="1854"
     inkscape:window-height="1003"
     inkscape:window-x="0"
     inkscape:window-y="0"
     inkscape:window-maximized="1"
     inkscape:current-layer="Logo" />
  <defs
     id="defs1">
    <style
       id="style1">
      .cls-1 {
        fill: #76b900;
      }
    </style>
  </defs>
  <g
     id="NVIDIA_Logo"
     data-name="NVIDIA Logo"
     transform="translate(-303.18889,-303.1884)">
    <path
       id="Eye_Mark"
       data-name="Eye Mark"
       class="cls-1"
       d="m 562.33277,440.32747 v -41.51484 c 4.03067,-0.28719 8.1015,-0.50201 12.24981,-0.63193 113.54578,-3.56881 188.03666,97.56221 188.03666,97.56221 0,0 -80.45467,111.74769 -166.71866,111.74769 -12.42474,0 -23.54317,-2.00293 -33.56781,-5.3669 V 476.23553 c 44.20443,5.33954 53.09028,24.86431 79.67288,69.16142 l 59.10445,-49.83382 c 0,0 -43.14312,-56.58671 -115.8735,-56.58671 -7.9143,0 -15.4767,0.5593 -22.90382,1.35106 m -10e-6,-137.13908 v 62.01116 c 4.07568,-0.32223 8.15648,-0.5818 12.24981,-0.72911 157.90263,-5.31959 260.7719,129.49688 260.7719,129.49688 0,0 -118.16107,143.68237 -241.25685,143.68237 -11.27852,0 -21.84021,-1.04136 -31.76486,-2.79725 v 38.33066 c 8.48868,1.07896 17.27709,1.71318 26.45269,1.71318 114.55722,0 197.39715,-58.49733 277.61961,-127.73864 13.29143,10.64905 67.74555,36.55502 78.94403,47.91078 -76.27925,63.8494 -254.03143,115.31395 -354.80289,115.31395 -9.71009,0 -19.05038,-0.58692 -28.21344,-1.46589 V 762.786 H 997.73533 V 303.1884 Z m 0,298.93531 v 32.72874 C 456.38161,615.96191 426.97414,505.8251 426.97414,505.8251 c 0,0 50.87022,-56.36448 135.35863,-65.49762 v 35.90806 c -0.065,0 -0.10741,-0.0174 -0.16495,-0.0174 -44.33435,-5.3247 -78.97625,36.10037 -78.97625,36.10037 0,0 19.40738,69.7357 79.1412,89.80519 M 374.15111,501.05253 c 0,0 62.7955,-92.65973 188.18166,-102.2399 v -33.61307 c -138.87732,11.14605 -259.14388,128.76777 -259.14388,128.76777 0,0 68.11253,196.9202 259.14388,214.94916 V 673.1831 C 422.14914,655.54618 374.15111,501.05253 374.15111,501.05253 Z" />
    <path
       id="NVIDIA"
       d="m 1782.0126,390.03445 0.03,301.67443 h 85.1961 V 390.03963 Z m -670.2246,-0.40994 v 302.08437 h 85.9564 V 462.33224 l 66.589,0.0228 c 22.0588,0 37.7684,5.48885 48.3979,16.83063 13.4764,14.36088 18.9767,37.51036 18.9767,79.87678 v 132.64642 l 83.2689,-0.0152 0.015,-166.88462 c 0,-119.12071 -75.9315,-135.18458 -150.2135,-135.18458 H 1111.788 m 807.4058,0.42005 v 301.66433 h 138.1881 c 73.6264,0 97.6564,-12.24536 123.6451,-39.69921 18.3719,-19.27266 30.24,-61.58103 30.24,-107.81676 0,-42.40166 -10.0461,-80.23101 -27.5754,-103.78783 -31.5633,-42.12595 -77.0375,-50.36052 -144.9244,-50.36052 h -119.5734 z m 84.5126,65.68563 h 36.6322 c 53.144,0 87.514,23.86545 87.514,85.78801 0,61.93785 -34.37,85.8033 -87.514,85.8033 h -36.6322 z m -344.5342,-65.68563 -71.1045,239.08643 -68.1339,-239.07114 -91.9701,-0.0153 97.3045,301.66433 h 122.7949 l 98.0688,-301.66433 h -86.9598 z m 591.7409,301.66433 h 85.2112 V 390.05984 l -85.2314,-0.0153 z m 238.8385,-301.55549 -118.9689,301.45158 h 84.0093 l 18.8221,-53.28064 h 140.7947 l 17.8176,53.28064 h 91.2111 L 2603.5604,390.12825 Z m 55.3049,54.99658 51.6106,141.22486 h -104.8508 z" />
  </g>
</svg>
