<?xml version="1.0" encoding="UTF-8" standalone="no"?>
<!-- Created with Inkscape (http://www.inkscape.org/) -->

<svg
   version="1.1"
   id="svg1"
   width="421"
   height="107"
   viewBox="0 0 421 107"
   sodipodi:docname="wessini-light (copy).svg"
   inkscape:version="1.4.2 (ebf0e940d0, 2025-05-08)"
   xmlns:inkscape="http://www.inkscape.org/namespaces/inkscape"
   xmlns:sodipodi="http://sodipodi.sourceforge.net/DTD/sodipodi-0.dtd"
   xmlns="http://www.w3.org/2000/svg"
   xmlns:svg="http://www.w3.org/2000/svg">
  <defs
     id="defs1">
    <clipPath
       clipPathUnits="userSpaceOnUse"
       id="clipPath2">
      <rect
         style="fill:#fafafa"
         id="rect3"
         width="425.3125"
         height="93.4375"
         x="-2.5"
         y="-0.9375" />
    </clipPath>
  </defs>
  <sodipodi:namedview
     id="namedview1"
     pagecolor="#ffffff"
     bordercolor="#999999"
     borderopacity="1"
     inkscape:showpageshadow="2"
     inkscape:pageopacity="0"
     inkscape:pagecheckerboard="0"
     inkscape:deskcolor="#d1d1d1"
     inkscape:zoom="2"
     inkscape:cx="227.5"
     inkscape:cy="114.25"
     inkscape:window-width="1854"
     inkscape:window-height="1003"
     inkscape:window-x="0"
     inkscape:window-y="0"
     inkscape:window-maximized="1"
     inkscape:current-layer="g1">
    <inkscape:page
       x="0"
       y="0"
       width="421"
       height="107"
       id="page2"
       margin="0"
       bleed="0" />
  </sodipodi:namedview>
  <g
     inkscape:groupmode="layer"
     inkscape:label="Image"
     id="g1"
     clip-path="url(#clipPath2)">
    <path
       style="fill:#fbcf64"
       d="M 21.347838,82.456381 C 17.188136,80.329897 14.512607,74.722501 12.064364,63 10.973123,57.775 8.290128,45.175 6.1021524,35 3.9141768,24.825 1.8210307,14.8125 1.4507166,12.75 L 0.7774182,9 h 8.0043021 c 5.4928627,0 8.1477957,0.3922015 8.4616377,1.25 0.251534,0.6875 2.871425,13.559763 5.821979,28.605028 3.877163,19.770167 5.581269,26.702038 6.145907,25 0.429694,-1.295265 3.009435,-12.137469 5.732757,-24.093787 C 40.413337,15.748984 41.938538,11.600263 46.085185,9.4559491 49.933335,7.4659936 56.991305,7.6308662 59.624984,9.7722358 63.65035,13.045146 64.886297,16.576445 70.554636,41 c 3.127344,13.475 5.792855,24.623436 5.923358,24.774302 0.130502,0.150866 2.156309,-9.749134 4.501794,-22 C 83.325272,31.523436 85.770922,18.8 86.414565,15.5 l 1.17026,-6 8.207588,-0.2904423 C 100.30659,9.0498144 104,9.1922669 104,9.5261189 104,12.452915 90.566907,73.412198 89.264104,76.397511 84.977767,86.219459 70.443097,86.558895 65.475723,76.953053 64.583967,75.228588 61.376742,63.173309 58.348556,50.163546 55.32037,37.153782 52.734814,26.401481 52.602877,26.269543 52.470939,26.137606 50.188817,35.585484 47.531494,47.264828 41.196421,75.108452 40.576702,77.073302 37.07026,80.432687 33.355004,83.992127 26.162835,84.91786 21.347838,82.456381 Z M 245.5,82.601175 c -2.2,-0.695768 -5.38382,-1.986533 -7.07515,-2.868366 C 234.77917,77.83201 228,70.587707 228,68.592684 c 0,-0.770856 2.91591,-2.866802 6.4798,-4.657659 l 6.4798,-3.256103 2.1881,2.781719 C 249.85742,71.990672 268,69.958223 268,60.676525 c 0,-3.677751 -3.48321,-5.688912 -13.5,-7.794736 -18.41194,-3.870729 -24.65966,-9.015698 -25.32882,-20.858159 -0.42516,-7.524303 1.41385,-12.405866 6.48724,-17.220016 7.97287,-7.5654764 22.80895,-9.5852846 33.36113,-4.541838 3.01425,1.440668 6.17376,3.208633 7.02114,3.92881 2.71702,2.30917 7.14781,8.695392 6.62255,9.545279 -0.27951,0.452263 -3.2441,2.129934 -6.58797,3.728157 l -6.07976,2.90586 -2.74775,-2.562754 C 263.1638,23.99814 260.66236,23 255.2006,23 c -7.86738,0 -12.11148,4.560968 -9.23882,9.928591 1.23903,2.31515 4.66324,3.645669 14.48842,5.629658 C 277.1998,41.940478 284,48.276342 284,60.5 c 0,9.923367 -5.74116,17.38872 -16.45555,21.397485 -6.39941,2.394324 -15.75446,2.692951 -22.04445,0.70369 z M 370.09056,81.75 c -2.25482,-1.582843 -7.48265,-9.639677 -17.63095,-27.171819 L 338.03388,29.656361 337.76694,56.078181 337.5,82.5 l -7.75,0.292064 -7.75,0.292065 0.004,-33.792065 c 0.004,-31.730256 0.12262,-33.987038 1.95217,-36.987594 3.92292,-6.4337597 15.50869,-6.7428074 19.84559,-0.529377 1.89813,2.719419 24.45829,41.038669 27.50894,46.724907 1.5154,2.824639 1.61183,1.465593 1.64952,-23.25 L 373,9 h 8 8 v 33.04966 c 0,27.585525 -0.2508,33.534644 -1.51693,35.983073 -3.06572,5.928459 -11.63389,7.759716 -17.39251,3.717267 z M 117.8024,82.061021 c -4.33723,-0.855282 -6.39879,-2.379838 -8.36834,-6.188528 -2.07935,-4.021031 -2.09028,-55.366176 -0.0128,-60.338194 C 111.94325,9.4982331 114.19815,9 138.99415,9 h 22.09347 L 160.79381,16.25 160.5,23.5 147,23.345558 c -7.425,-0.08494 -15.6375,-0.467755 -18.25,-0.850694 L 124,21.798613 v 9.205729 9.205729 l 4.25,-0.671872 c 2.3375,-0.369529 10.2125,-0.901661 17.5,-1.182516 L 159,37.845039 v 7.631596 7.631596 l -13.25,-0.45989 c -7.2875,-0.25294 -15.1625,-0.774558 -17.5,-1.159151 L 124,50.789929 v 8.995417 8.995416 l 19.04681,-0.539164 19.04682,-0.539164 -0.29682,7.398783 L 161.5,82.5 l -20,0.145085 c -11,0.0798 -21.66392,-0.183032 -23.6976,-0.584064 z m 62.45461,-2.016033 c -4.89433,-2.315405 -6.88357,-3.963513 -9.20821,-7.629085 -7.39684,-11.663617 -3.54082,-24.946634 8.78068,-30.247201 2.66422,-1.146117 8.405,-2.811166 12.75728,-3.700109 11.85017,-2.42037 15.80634,-5.789644 13.19519,-11.237699 -2.94289,-6.140217 -14.34529,-6.42706 -20.87794,-0.525212 l -3.75919,3.396211 -6.07241,-3.065342 C 171.73258,25.350613 169,23.595205 169,23.135643 c 0,-0.459561 1.2722,-2.590583 2.82711,-4.735605 8.58341,-11.8409286 30.67781,-14.0267884 42.58372,-4.212925 7.02498,5.790576 9.50038,15.995819 6.00125,24.741024 -2.77877,6.94481 -11.54311,11.760928 -25.48984,14.006983 -7.62908,1.228628 -11.30903,3.644985 -11.7193,7.695226 -0.93396,9.220081 18.96745,11.648625 25.4147,3.101323 l 1.86638,-2.474317 6.25799,3.085956 c 3.44189,1.697275 6.25799,3.6858 6.25799,4.418943 0,0.733143 -2.15333,3.48632 -4.78518,6.118171 -6.13763,6.137627 -11.788,8.119834 -23.14296,8.118789 -7.41743,-6.83e-4 -9.41265,-0.398549 -14.81485,-2.954223 z M 293,46 V 9 h 8 8 v 37 37 h -8 -8 z m 106.41774,15.25 c 0.35077,-11.4125 0.88465,-23.675 1.1864,-27.25 l 0.54863,-6.5 h 6.79788 6.79788 l 0.60918,9.5 c 0.33506,5.225 0.90909,17.4875 1.27563,27.25 L 417.29978,82 h -9.2599 -9.2599 z m 1.48014,-38.536557 C 390.83218,15.939871 396.1406,1 408.61309,1 c 8.29342,0 14.42979,8.6538498 11.37162,16.036913 -3.17725,7.67057 -12.15562,10.340787 -19.08683,5.67653 z"
       id="path8"
       sodipodi:nodetypes="sssscssssssssssscssssssssssssscssssssssscsssssssssccccccsssccccssssscscccsscccsscccsscccccccsssssssscsssssssscssssscccccccccsscccsscccsssss" />
    <path
       style="fill:#083c62;fill-opacity:1"
       d="M 21.347838,82.456381 C 17.188136,80.329897 14.512607,74.722501 12.064364,63 10.973123,57.775 8.290128,45.175 6.1021524,35 3.9141768,24.825 1.8210307,14.8125 1.4507166,12.75 L 0.7774182,9 h 8.0043021 c 5.4928627,0 8.1477957,0.3922015 8.4616377,1.25 0.251534,0.6875 2.871425,13.559763 5.821979,28.605028 3.877163,19.770167 5.581269,26.702038 6.145907,25 0.429694,-1.295265 3.009435,-12.137469 5.732757,-24.093787 C 40.413337,15.748984 41.938538,11.600263 46.085185,9.4559491 49.933335,7.4659936 56.991305,7.6308662 59.624984,9.7722358 63.65035,13.045146 64.886297,16.576445 70.554636,41 c 3.127344,13.475 5.792855,24.623436 5.923358,24.774302 0.130502,0.150866 2.156309,-9.749134 4.501794,-22 C 83.325272,31.523436 85.770922,18.8 86.414565,15.5 l 1.17026,-6 8.207588,-0.2904423 C 100.30659,9.0498144 104,9.1922669 104,9.5261189 104,12.452915 90.566907,73.412198 89.264104,76.397511 84.977767,86.219459 70.443097,86.558895 65.475723,76.953053 64.583967,75.228588 61.376742,63.173309 58.348556,50.163546 55.32037,37.153782 52.734814,26.401481 52.602877,26.269543 52.470939,26.137606 50.188817,35.585484 47.531494,47.264828 41.196421,75.108452 40.576702,77.073302 37.07026,80.432687 33.355004,83.992127 26.162835,84.91786 21.347838,82.456381 Z M 245.5,82.601175 c -2.2,-0.695768 -5.38382,-1.986533 -7.07515,-2.868366 C 234.77917,77.83201 228,70.587707 228,68.592684 c 0,-0.770856 2.91591,-2.866802 6.4798,-4.657659 l 6.4798,-3.256103 2.1881,2.781719 C 249.85742,71.990672 268,69.958223 268,60.676525 c 0,-3.677751 -3.48321,-5.688912 -13.5,-7.794736 -18.41194,-3.870729 -24.65966,-9.015698 -25.32882,-20.858159 -0.42516,-7.524303 1.41385,-12.405866 6.48724,-17.220016 7.97287,-7.5654764 22.80895,-9.5852846 33.36113,-4.541838 3.01425,1.440668 6.17376,3.208633 7.02114,3.92881 2.71702,2.30917 7.14781,8.695392 6.62255,9.545279 -0.27951,0.452263 -3.2441,2.129934 -6.58797,3.728157 l -6.07976,2.90586 -2.74775,-2.562754 C 263.1638,23.99814 260.66236,23 255.2006,23 c -7.86738,0 -12.11148,4.560968 -9.23882,9.928591 1.23903,2.31515 4.66324,3.645669 14.48842,5.629658 C 277.1998,41.940478 284,48.276342 284,60.5 c 0,9.923367 -5.74116,17.38872 -16.45555,21.397485 -6.39941,2.394324 -15.75446,2.692951 -22.04445,0.70369 z M 370.09056,81.75 c -2.25482,-1.582843 -7.48265,-9.639677 -17.63095,-27.171819 L 338.03388,29.656361 337.76694,56.078181 337.5,82.5 l -7.75,0.292064 -7.75,0.292065 0.004,-33.792065 c 0.004,-31.730256 0.12262,-33.987038 1.95217,-36.987594 3.92292,-6.4337597 15.50869,-6.7428074 19.84559,-0.529377 1.89813,2.719419 24.45829,41.038669 27.50894,46.724907 1.5154,2.824639 1.61183,1.465593 1.64952,-23.25 L 373,9 h 8 8 v 33.04966 c 0,27.585525 -0.2508,33.534644 -1.51693,35.983073 -3.06572,5.928459 -11.63389,7.759716 -17.39251,3.717267 z M 117.8024,82.061021 c -4.33723,-0.855282 -6.39879,-2.379838 -8.36834,-6.188528 -2.07935,-4.021031 -2.09028,-55.366176 -0.0128,-60.338194 C 111.94325,9.4982331 114.19815,9 138.99415,9 h 22.09347 L 160.79381,16.25 160.5,23.5 147,23.345558 c -7.425,-0.08494 -15.6375,-0.467755 -18.25,-0.850694 L 124,21.798613 v 9.205729 9.205729 l 4.25,-0.671872 c 2.3375,-0.369529 10.2125,-0.901661 17.5,-1.182516 L 159,37.845039 v 7.631596 7.631596 l -13.25,-0.45989 c -7.2875,-0.25294 -15.1625,-0.774558 -17.5,-1.159151 L 124,50.789929 v 8.995417 8.995416 l 19.04681,-0.539164 19.04682,-0.539164 -0.29682,7.398783 L 161.5,82.5 l -20,0.145085 c -11,0.0798 -21.66392,-0.183032 -23.6976,-0.584064 z M 293,46 V 9 h 8 8 v 37 37 h -8 -8 z"
       id="path7"
       sodipodi:nodetypes="sssscssssssssssscssssssssssssscssssssssscsssssssssccccccsssccccssssscscccsscccsscccsscccccccssccccccccc" />
    <path
       style="fill:#083c62;fill-opacity:1"
       d="M 22.396258,82.62287 C 16.479839,79.947815 15.54044,77.322931 8.0585062,42.5601 4.1763278,24.522581 1,9.5925741 1,9.3823059 1,9.1720377 4.6,9 9,9 13.4,9 17,9.3390881 17,9.7535291 17,10.747724 27.91553,65.206657 28.374035,66.5 c 0.456882,1.288765 1.429767,-2.509587 7.171743,-28 2.601755,-11.55 5.334319,-22.197767 6.072363,-23.661704 4.623308,-9.1704896 17.098318,-9.1704896 21.780931,0 C 64.146584,16.302233 67.328289,28.525 70.469529,42 75.441863,63.329863 77,69.227401 77,66.71779 77,66.055651 86.699011,14.989894 87.535097,11.25 88.005754,9.1447061 88.555723,9 96.08644,9 c 7.1968,0 7.99324,0.1851552 7.52758,1.75 -0.28641,0.9625 -3.47742,15.907788 -7.091122,33.21175 -3.613701,17.303963 -7.259136,32.512947 -8.100966,33.797741 -2.097294,3.200874 -7.332447,6.232259 -10.770803,6.236771 -4.270743,0.0056 -9.383451,-2.816382 -11.509493,-6.352724 C 65.102196,75.914592 61.682417,63.475 58.542126,50 55.401835,36.525 52.720564,25.387872 52.583746,25.250827 c -0.136817,-0.137045 -2.631134,10.212955 -5.542925,23 -5.824004,25.575943 -7.60287,30.760885 -11.409183,33.254877 -3.506214,2.29736 -9.505225,2.803722 -13.23538,1.117166 z M 246,82.414531 C 239.4527,80.683845 233.38244,76.691233 230.26479,72.064958 229.01916,70.216559 228,68.417365 228,68.066748 c 0,-0.350616 2.88796,-2.061605 6.4177,-3.802195 l 6.4177,-3.164711 1.66008,2.533605 c 3.14306,4.79692 12.95423,6.848754 20.37641,4.261369 5.53455,-1.929354 6.99317,-8.282596 2.68044,-11.674997 -1.34623,-1.058937 -6.38965,-2.708207 -11.20761,-3.665043 C 236.39167,48.989341 229,42.512792 229,30.347843 c 0,-13.83607 12.11762,-23.1190067 28.90983,-22.1469212 9.53358,0.5518907 16.89954,4.1661042 21.89229,10.7417752 l 3.37324,4.442697 -6.62965,3.342253 -6.62966,3.342252 -3.01055,-3.010548 C 259.43391,19.587754 245,21.423274 245,29.845012 c 0,3.985867 2.52665,5.847485 10.55169,7.774419 15.73818,3.778976 17.77949,4.633781 22.63154,9.477041 3.18247,3.176712 4.90427,5.853003 5.37301,8.351609 2.39667,12.775337 -4.96653,23.447167 -18.69977,27.102475 C 258.19679,84.323132 253.08075,84.286227 246,82.414531 Z m 125.2757,-0.04976 c -2.63883,-1.301032 -5.77138,-5.983666 -17.25167,-25.78839 -7.71506,-13.309287 -14.68731,-25.071181 -15.4939,-26.137543 -1.3007,-1.719617 -1.47012,1.085759 -1.49833,24.81116 L 337,82 h -7.54942 -7.54942 L 322.20058,48.079156 322.5,14.158311 324.92574,11.577635 C 329.65988,6.5411296 338.22891,6.3827313 342.73241,11.248479 343.87855,12.486816 350.96665,24.075 358.48374,37 366.00083,49.925 372.56716,60.9275 373.07559,61.45 373.64211,62.032205 374,52.063018 374,35.7 V 9 h 7.5 7.5 v 32.598871 c 0,36.347537 -0.24062,37.863836 -6.4784,40.823856 -4.17368,1.980539 -7.14233,1.96524 -11.2459,-0.05795 z M 114.24138,80.67477 C 108.71043,77.603062 108.52564,76.607331 108.17759,48 c -0.34646,-28.476728 0.0839,-32.01686 4.38404,-36.059886 2.57376,-2.4198833 2.78532,-2.44262 25.51682,-2.7423738 L 161,8.8954805 v 7.1801605 7.180161 l -16.75,-0.49522 c -9.2125,-0.27237 -17.5375,-0.828071 -18.5,-1.234889 -1.59567,-0.674441 -1.75,0.097 -1.75,8.74781 v 9.48748 l 17.5,-0.525449 17.5,-0.525449 v 7.200551 7.200552 l -12.75,-0.475021 c -7.0125,-0.261261 -14.8875,-0.781591 -17.5,-1.156287 L 124,50.798613 v 9.707682 c 0,8.861875 0.15247,9.642928 1.75,8.964468 0.9625,-0.408768 9.5125,-0.963595 19,-1.232948 L 162,67.748081 V 74.87404 82 L 139.25,81.96456 C 122.93305,81.93915 115.86133,81.574432 114.24138,80.67477 Z M 293,45.5 V 9 h 8 8 V 45.5 82 h -8 -8 z"
       id="path6"
       sodipodi:nodetypes="ssssssssssssssssssssssssssscssssssscccssssssssssscccccssssscccsssssssscccssscccccsscssscccssccccccccc" />
    <path
       style="fill:#083c62;fill-opacity:1"
       d="m 22.034018,82.248446 c -1.906291,-0.961645 -4.244635,-3.098659 -5.196321,-4.74892 -0.951686,-1.650261 -4.707605,-16.950261 -8.3464881,-34 C 4.8523262,26.449787 1.6478459,11.7125 1.3701416,10.75 0.9195244,9.1881984 1.7164689,9 8.7806882,9 h 7.9154638 l 5.207533,26.75 c 2.864144,14.7125 5.562015,27.875 5.995271,29.25 1.019383,3.235166 0.717761,4.25192 7.564621,-25.5 5.573269,-24.21774 6.936805,-27.768333 11.632822,-30.2914045 3.19089,-1.7143981 10.445824,-0.9251732 13.082197,1.4231415 3.201034,2.851278 4.240236,6.075767 10.265126,31.851147 3.069351,13.131146 5.778257,24.072428 6.019791,24.313962 0.570031,0.570031 0.628497,0.295549 6.548076,-30.741147 2.774024,-14.544365 5.201164,-26.6017856 5.393646,-26.7942673 0.192482,-0.1924818 3.708093,-0.2175465 7.812469,-0.055699 L 103.68021,9.5 96.861678,41.870673 c -3.750191,17.803871 -7.628264,33.778871 -8.61794,35.5 -0.989676,1.72113 -3.493953,3.963237 -5.56506,4.98246 -4.936334,2.429245 -9.761327,1.528696 -14.270993,-2.663574 C 65.124854,76.637777 64.738903,75.484885 59.472889,53 56.445824,40.075 53.729178,28.434401 53.435899,27.132001 c -0.293279,-1.302399 -0.711545,-2.189688 -0.92948,-1.971754 -0.217934,0.217935 -2.937774,11.408534 -6.044087,24.867999 -3.106313,13.459465 -6.393602,25.770861 -7.305087,27.358659 -1.903468,3.315822 -7.461181,6.613815 -11.141643,6.611541 -1.383581,-8.55e-4 -4.075294,-0.788355 -5.981584,-1.75 z m 225.938232,0.43484 c -7.43088,-1.657171 -14.45112,-5.93868 -17.64098,-10.75889 -1.44317,-2.180779 -2.44559,-4.127571 -2.22761,-4.326205 0.21799,-0.198634 3.16676,-1.749722 6.55283,-3.446862 l 6.15649,-3.08571 1.67129,2.550716 C 244.69091,66.984091 249.75843,69 256.01754,69 c 8.75501,0 13.21233,-3.963689 11.61484,-10.328561 -0.73678,-2.935602 -3.50892,-4.190741 -14.60408,-6.612295 -4.87505,-1.063994 -10.65723,-2.849512 -12.84928,-3.967817 -5.62414,-2.869219 -9.96873,-8.506221 -10.79315,-14.003835 -2.06656,-13.780827 8.23172,-24.8556614 24.04696,-25.8602324 8.39897,-0.5334957 13.42975,0.66555 19.83467,4.7274294 4.11594,2.61025 8.71732,8.029858 8.72876,10.280916 0.002,0.404582 -2.72678,2.113967 -6.06409,3.798633 l -6.06782,3.063028 -1.94293,-2.470031 c -4.25492,-5.409263 -14.67427,-6.984868 -20.58396,-3.112689 -1.97727,1.295552 -2.39171,2.299927 -2.14423,5.196365 0.42089,4.926071 3.38156,6.806333 14.47448,9.192467 13.97198,3.005431 19.50831,6.48697 22.78456,14.328151 4.32873,10.360099 -0.44494,21.229937 -11.70723,26.657861 -7.40421,3.568503 -15.07788,4.509951 -22.77279,2.793896 z M 372.37912,82.563424 C 368.19347,80.741711 366.4129,78.148041 351.57119,52.253518 344.55826,40.017953 338.41081,29.753896 337.9102,29.444501 337.37199,29.11187 337,39.736461 337,55.440983 V 82 h -7.5 -7.5 l 0.006,-31.25 c 0.003,-18.332214 0.43088,-32.781332 1.03444,-34.954514 0.56588,-2.037483 2.19906,-4.624983 3.62928,-5.75 3.52379,-2.7718084 11.1089,-2.7943914 14.60611,-0.04349 1.39982,1.101099 8.93945,13.032881 16.75474,26.51507 7.81528,13.482189 14.60566,24.757847 15.08973,25.057017 C 373.61828,61.88212 374,50.580183 374,35.515207 V 8.9123809 L 381.25,9.2061904 388.5,9.5 v 33.045979 c 0,36.913302 -0.0343,37.107996 -7.04566,40.037547 -4.11691,1.720155 -5.08163,1.718018 -9.07522,-0.0201 z M 115.0964,80.735258 c -1.32198,-0.679392 -3.34698,-2.505757 -4.5,-4.058588 C 108.58409,73.966584 108.5,72.721395 108.5,45.63269 108.5,7.0406542 106.8169,9 139.96788,9 H 161 v 7.127901 7.127901 l -16.75,-0.49522 c -9.2125,-0.27237 -17.5375,-0.828071 -18.5,-1.234889 -1.59567,-0.674441 -1.75,0.097 -1.75,8.74781 v 9.48748 l 17.54903,-0.526921 17.54903,-0.526921 -0.29903,6.896429 L 158.5,52.5 l -12,-0.108473 c -6.6,-0.05966 -14.3625,-0.454413 -17.25,-0.877229 L 124,50.745541 v 9.592778 9.592778 l 4.25,-0.653788 C 130.5875,68.917725 139.025,68.595728 147,68.56176 L 161.5,68.5 l 0.29569,6.75 0.29569,6.75 -22.29569,-0.01474 c -15.70476,-0.01038 -23.00623,-0.379902 -24.69929,-1.25 z M 293,45.457936 V 8.9158715 L 300.75,9.2079357 308.5,9.5 308.76247,45.75 309.02495,82 H 301.01247 293 Z"
       id="path5"
       sodipodi:nodetypes="ssssscsssssssssscssssssssssssssscsssssssssscsssssssssssccccsssscscccsssssssscccssscccccsscccsscccsssccccccccc" />
    <path
       style="fill:#083c62;fill-opacity:1"
       d="M 23.637207,82.486088 C 20.081786,81.263793 16.526646,77.963149 15.573901,75 15.308638,74.175 12.58857,61.8 9.5293065,47.5 6.4700425,33.2 3.5244315,19.613231 2.9835042,17.30718 1.0192914,8.9334579 1.0649026,8.8744749 9.2479378,9.2061904 L 16.495876,9.5 21.596339,35 c 2.805255,14.025 5.446984,27.3 5.87051,29.5 0.651114,3.382205 0.90177,3.691103 1.622908,2 C 29.823414,64.77954 37.459686,32.247184 39.535176,22 41.882949,10.408491 50.453209,4.9298151 58.531608,9.8562272 c 4.342561,2.6482038 5.810213,6.7570638 11.996084,33.5844108 3.036138,13.167351 5.712564,24.132951 5.947612,24.367999 0.62093,0.620931 1.139132,-1.937943 10.2387,-50.558637 L 88.258026,9 h 7.370987 c 8.205347,0 8.130377,-0.085919 6.376077,7.30718 -0.54721,2.306051 -3.49319,16.323657 -6.546634,31.150236 C 89.723605,75.304073 88.199337,79.676885 83.477507,81.828295 79.252103,83.753518 72.626772,83.280859 69.513679,80.8321 65.609292,77.760908 64.644571,74.907187 58.55037,48.401745 55.564188,35.413973 52.912018,24.578684 52.656658,24.323325 52.401299,24.067966 51.452143,27.153253 50.547423,31.179518 48.180385,41.713513 41.921338,68.87801 40.900476,73.047629 39.092758,80.43109 30.818533,84.954911 23.637207,82.486088 Z M 243.19605,81.15978 c -5.31039,-1.891269 -9.6721,-5.285722 -13.32998,-10.373906 l -1.95117,-2.714126 6.16587,-3.112519 6.16586,-3.112518 3.20914,3.110421 c 8.1148,7.865176 27.18757,4.125041 25.05811,-4.913851 -0.88392,-3.751983 -3.87826,-5.783713 -10.29512,-6.985486 -11.6391,-2.179814 -19.13009,-5.053183 -23.13613,-8.874478 C 229.08835,38.465464 227.44435,30.012183 230.86566,22.5 238.87225,4.9198941 268.2808,2.972213 279.66478,19.268113 c 1.44778,2.072463 2.45298,3.937313 2.23377,4.144112 -0.2192,0.2068 -3.06446,1.734648 -6.3228,3.395219 l -5.92426,3.01922 -1.99364,-2.534512 c -5.19096,-6.599238 -18.08531,-7.147976 -22.15118,-0.942676 -3.74038,5.708545 1.23312,10.427324 13.29563,12.614674 17.66135,3.202613 24.544,9.241716 24.544,21.53585 0,8.917659 -4.11017,15.25453 -12.83319,19.785638 -5.79332,3.009293 -20.04167,3.465238 -27.31706,0.874142 z m 127.03454,0.289181 C 368.12518,79.974274 365.68632,76.01605 345.92405,42 L 337.5,27.5 337.23393,54.75 336.96786,82 H 329.98393 323 V 47.90121 13.80242 l 3.10576,-2.90121 C 328.67072,8.5051707 330.07711,8 334.18268,8 c 4.10655,0 5.43741,0.4782947 7.65188,2.75 1.47439,1.5125 9.20228,14 17.17308,27.75 L 373.5,63.5 373.76607,36.25 374.03214,9 H 381.01607 388 v 34.076923 34.076923 l -2.92308,2.923077 C 382.64902,82.504828 381.3315,83 377.29943,83 c -2.76757,0 -5.80637,-0.666771 -7.06884,-1.551039 z M 115.3783,80.563079 C 109.06121,77.813728 109,77.485351 109,46.342593 c 0,-15.516816 0.42991,-29.343154 0.95537,-30.725194 2.11694,-5.567991 4.44273,-6.0887042 28.74735,-6.4361391 L 161,8.8625198 v 7.1425142 7.142514 l -14.25,-0.502374 c -7.8375,-0.276306 -16.1625,-0.80677 -18.5,-1.17881 L 124,20.789929 v 10.212024 c 0,9.336423 0.15005,10.1496 1.75,9.483976 0.9625,-0.400427 8.6125,-0.958811 17,-1.240853 L 158,38.732272 V 45.5 52.267728 l -15.25,-0.512804 c -8.3875,-0.282042 -16.0375,-0.840426 -17,-1.240853 -1.59992,-0.665612 -1.75,0.147346 -1.75,9.479634 v 10.207682 l 4.75,-0.684565 c 2.6125,-0.376511 10.9375,-0.895543 18.5,-1.153406 L 161,67.894576 V 74.947288 82 l -21.25,-0.03914 c -15.63482,-0.0288 -22.07489,-0.398153 -24.3717,-1.397779 z M 293,45.5 V 9 h 7.5 7.5 V 45.5 82 h -7.5 -7.5 z"
       id="path4"
       sodipodi:nodetypes="ssssscsssssssscsssssssssssscccsssssssscsssssssscccccccsssscccccccssssscscccsscssscccssscsscccsssccccccccc" />
    <path
       style="fill:#fafafa;fill-opacity:1"
       d="m 22.136847,82.105738 c -1.15087,-0.729143 -1.15087,-0.948058 0,-1.40574 0.791278,-0.314678 0.428895,-0.575224 -0.863794,-0.621051 -1.224821,-0.04342 -2.951171,-1.184252 -3.836333,-2.53518 -0.885162,-1.350928 -3.584049,-11.588428 -5.997527,-22.75 C 9.0257149,43.632195 5.9133801,29.348684 4.5228933,23.052632 3.1251302,16.723633 2.3766681,11.223332 2.8489379,10.751062 3.3187492,10.281251 6.5634384,10.032566 10.059358,10.19843 l 6.356219,0.30157 1.79015,8.918728 c 0.984583,4.9053 1.569983,9.138896 1.300888,9.40799 -0.269095,0.269095 -0.09699,0.980668 0.382466,1.581273 C 20.368532,31.008596 21.523653,35.775 22.456016,41 c 1.63131,9.141923 4.186073,21.519447 5.22724,25.325361 0.274646,1.003948 0.788693,1.536023 1.142327,1.18239 C 29.55787,66.775464 34.666703,47.299556 35.516662,42 c 0.308737,-1.925 1.182526,-5.975 1.941752,-9 0.759227,-3.025 1.916391,-8.173297 2.571478,-11.44066 C 41.703103,13.213888 46.026159,9 52.914599,9 c 4.351162,0 5.220576,0.389926 8.046967,3.609008 1.742813,1.984954 2.928553,4.234954 2.634977,5 C 63.302968,18.374053 63.42353,19 63.864459,19 64.689383,19 69.293237,39.031203 68.832415,40.615399 68.69089,41.101929 69.06505,42.4 69.663883,43.5 c 0.598833,1.1 1.882232,5.6 2.851998,10 0.969765,4.4 2.037915,9.239608 2.373665,10.754684 1.156511,5.218774 2.53351,3.220169 4.309353,-6.254684 0.979306,-5.225 3.105128,-16.25 4.724048,-24.5 1.61892,-8.25 3.238097,-16.9125 3.59817,-19.25 L 88.175796,10 h 7.431154 c 7.19748,0 7.41441,0.07075 6.89869,2.25 -0.71276,3.011908 -8.104097,38.756182 -10.557996,51.058176 C 89.72873,74.432138 87.868868,78.711109 84.69764,79.988207 83.488938,80.474968 82.95,80.908642 83.5,80.951926 c 2.673033,0.210366 -2.488361,2.019417 -5.79966,2.032761 -4.542858,0.01831 -8.848247,-2.029116 -10.900189,-5.183575 C 65.316907,75.520913 62.648472,65.887197 62.700405,63 c 0.01484,-0.825 -0.30372,-1.95 -0.70791,-2.5 -1.403135,-1.909312 -4.124716,-16.50947 -3.49486,-18.748476 0.467474,-1.661771 0.375039,-1.876744 -0.352894,-0.82071 -0.750246,1.088403 -1.149469,0.490123 -1.668211,-2.5 C 55.13352,30.689465 53.35986,24.5 52.4845,24.5 c -0.489842,0 -1.898302,4.725 -3.129911,10.5 -5.125155,24.0318 -9.451537,40.652626 -11.192852,43 -1.019994,1.375 -2.936155,3.055866 -4.258136,3.735258 -2.766711,1.421868 -9.759731,1.642045 -11.766754,0.37048 z M 242.5,80.540204 c -6.08294,-2.520136 -13.99947,-9.541808 -13.25976,-11.760925 0.21013,-0.630378 2.72501,-2.411766 5.58864,-3.958639 l 5.20659,-2.812497 2.73226,2.962701 c 1.96709,2.132987 4.42904,3.342221 8.791,4.317869 3.3323,0.745343 6.7073,1.039896 7.5,0.654563 0.7927,-0.385332 3.08705,-1.403028 5.09855,-2.261547 2.74131,-1.170003 3.82786,-2.337596 4.33838,-4.661976 0.78311,-3.565448 -1.51988,-7.951819 -4.59751,-8.756637 C 262.85417,53.990108 262,53.342664 262,52.824352 c 0,-0.518312 -0.38382,-0.705174 -0.85293,-0.415249 -1.71909,1.062457 -13.73294,-1.598578 -19.71258,-4.366282 -8.21678,-3.803175 -10.6606,-7.686692 -11.22468,-17.837322 -0.29241,-5.261902 -0.0903,-7.249691 0.6881,-6.768594 C 231.55912,23.845557 232,23.325044 232,22.135742 c 0,-4.109103 9.41053,-12.2361207 12.18388,-10.5221 0.73814,0.456198 0.84359,0.239827 0.30658,-0.629072 -0.58771,-0.950939 -0.36749,-1.1513602 0.78089,-0.710686 0.87969,0.337569 1.76864,0.106147 1.97545,-0.5142716 0.2375,-0.7125037 3.30032,-1.1235323 8.3146,-1.1158143 9.25718,0.014249 14.92126,2.0871449 21.19814,7.7579239 6.0295,5.447292 5.97244,6.822644 -0.41296,9.954337 C 270.21639,29.362587 269,29.571303 269,27.616631 c 0,-0.760852 -0.7875,-1.668044 -1.75,-2.015981 -0.9625,-0.347937 -2.875,-1.293788 -4.25,-2.10189 -3.25985,-1.91585 -11.31288,-1.905444 -15.03517,0.01943 -3.60539,1.864418 -4.81574,5.861555 -2.85016,9.412517 1.46644,2.64922 4.83619,3.986936 19.08571,7.5766 8.38328,2.111874 13.97581,5.682186 16.81586,10.735386 1.84085,3.275337 2.13493,5.076131 1.79923,11.017275 -0.24522,4.339781 -0.87077,7.258468 -1.60838,7.504338 -0.6639,0.221298 -1.20709,0.95567 -1.20709,1.631936 0,2.640769 -8.44719,8.731221 -14.34779,10.344804 -1.18372,0.323699 -5.52721,0.745231 -9.65221,0.936738 -6.22872,0.289174 -8.51702,-0.07315 -13.5,-2.13758 z m 129,1.24416 C 368.35479,79.968293 367.73864,79.134407 361.31475,68 c -3.33183,-5.775 -7.07146,-12.206714 -8.31028,-14.292698 -1.23882,-2.085984 -1.99076,-4.054348 -1.67096,-4.374142 0.31979,-0.319794 -0.2717,-1.31308 -1.31444,-2.207302 C 348.97634,46.231636 346.89897,43.25 345.40268,40.5 c -1.49628,-2.75 -3.8865,-6.8 -5.31159,-9 L 337.5,27.5 337.23393,54.75 336.96786,82 H 329.98393 323 V 48.561718 15.123436 l 3.02479,-3.311718 C 328.66065,8.9258128 329.67892,8.5 333.94422,8.5 c 5.5848,0 8.51083,2.107352 12.42408,8.947915 1.27493,2.228647 7.18551,12.377085 13.13461,22.552085 5.94911,10.175 11.30718,19.508989 11.90683,20.742198 0.59964,1.233209 1.42776,2.245709 1.84026,2.25 C 373.6625,62.996489 374,51.075 374,36.5 V 10 h 7 7 v 32.452947 c 0,21.20429 -0.37615,33.278507 -1.08521,34.834729 C 384.69925,82.15024 376.35118,84.58548 371.5,81.784364 Z M 118,81.347931 c -8.85592,-2.917576 -9,-3.484245 -9,-35.397142 0,-29.548157 0.4708,-32.47738 5.59524,-34.812232 C 116.2158,10.400183 124.63444,10 138.54705,10 H 160 v 6.554116 6.554115 L 146.75,22.601817 C 139.4625,22.32329 131.25,21.961438 128.5,21.797702 L 123.5,21.5 v 9.5 9.5 l 3.88178,0.318221 c 2.13498,0.175022 4.36248,-0.162478 4.95,-0.75 C 132.97361,39.426389 138.30964,39 145.7,39 H 158 v 6.633864 6.633864 L 142.75,51.68591 c -8.3875,-0.319999 -16.15,-0.717738 -17.25,-0.883864 -1.88085,-0.284051 -2,0.263939 -2,9.197954 v 9.5 L 142.25,69.124019 161,68.748037 V 75.374019 82 L 140.25,81.92105 C 128.8375,81.877632 118.825,81.619727 118,81.347931 Z M 294,46 V 10 h 7 7 v 36 36 h -7 -7 z"
       id="path3"
       sodipodi:nodetypes="sssssssscsssssssssssssssssssscsssssssssssssssssssscssssssssssssssssssssssssssssssssssssssscccccccssssssscccssssssscccsscccssscccssscccccssccccccccc" />
    <path
       style="fill:#083c62;fill-opacity:1"
       d="M 23.735568,82.402234 C 22.588291,81.254958 24.229655,79 26.212024,79 c 1.727965,0 1.946484,-0.540692 1.616586,-4 l -0.381462,-4 h 3.717409 c 2.044575,0 3.995524,-0.45 4.335443,-1 0.339919,-0.55 1.678976,-1 2.975684,-1 1.296707,0 2.584623,-0.5625 2.862035,-1.25 0.354875,-0.879473 0.527788,-0.900646 0.583334,-0.07143 0.04342,0.648215 -0.669034,1.926553 -1.583232,2.840751 -1.21548,1.21548 -1.344341,1.858614 -0.479495,2.393118 1.577692,0.975068 -2.519119,7.103403 -5.888341,8.808249 -2.554195,1.292438 -9.182147,1.733816 -10.234417,0.681545 z m 47.70677,-0.820739 c -1.87553,-1.371421 -1.85484,-1.43986 0.623341,-2.061843 1.409794,-0.353836 3.20925,-0.503009 3.998792,-0.331495 C 77.175639,79.429538 77.5,78.257262 77.5,74 v -5.5 l 4.5,0.334514 c 2.654295,0.19731 5.055117,1.017624 5.853427,2 C 89.064988,72.325423 89.13654,72.264154 88.53604,70.25 88.167091,69.0125 88.249831,68 88.719905,68 c 1.707045,0 1.219091,5.581844 -0.773995,8.853945 -1.496525,2.456883 -2.564891,3.217451 -3.994424,2.843619 C 82.878169,79.416885 82,79.59511 82,80.09362 c 0,0.498509 0.5625,0.913271 1.25,0.921693 C 84.083333,81.025521 84,81.35375 83,82 80.75186,83.45286 73.649889,83.195696 71.442338,81.581495 Z M 81,80 c 0,-0.55 -0.45,-1 -1,-1 -0.55,0 -1,0.45 -1,1 0,0.55 0.45,1 1,1 0.55,0 1,-0.45 1,-1 z m 168.47043,1.95215 c -0.35619,-0.576317 -1.39524,-0.974498 -2.30902,-0.884846 C 243.55386,81.421249 242,80.931641 242,79.440983 c 0,-0.904053 0.47462,-1.265688 1.12973,-0.860804 0.68573,0.423802 0.94775,0.152247 0.66668,-0.690947 -0.29432,-0.882954 -1.95012,-1.389173 -4.54395,-1.389196 -2.24449,-2e-5 -4.457,-0.403979 -4.91668,-0.897686 -0.4827,-0.518437 0.0216,-0.687956 1.19375,-0.401275 C 237.51317,75.686229 240,73.997129 240,72.164651 c 0,-0.505869 -0.71154,-1.510288 -1.5812,-2.232042 -1.24003,-1.029134 -1.99229,-1.055554 -3.48643,-0.122445 -2.31836,1.447836 -4.60251,1.532583 -5.42529,0.20129 -0.35034,-0.56686 0.0511,-0.734507 0.94098,-0.393011 1.07502,0.412522 1.55194,-0.0026 1.55194,-1.350939 0,-1.120924 1.0921,-2.444066 2.57494,-3.119693 2.73807,-1.24755 4.87489,-0.684667 3.82846,1.008498 -0.39298,0.635852 0.63341,0.891503 2.73368,0.680902 2.99225,-0.300043 3.32845,-0.08931 3.05022,1.911878 -0.28424,2.044364 -0.0733,2.158056 2.3177,1.249009 2.75814,-1.048641 10.495,-0.294695 10.495,1.022721 0,0.420862 0.73865,1.04865 1.64144,1.395084 1.31851,0.505959 1.41186,0.353245 0.47448,-0.776228 -1.50545,-1.813956 1.26561,-3.086638 3.72002,-1.708519 1.53692,0.862954 1.53035,0.985861 -0.0859,1.608583 -0.9625,0.370831 -1.75,1.526094 -1.75,2.56725 0,1.689056 -0.83499,1.89984 -7.75,1.956397 -5.80906,0.04751 -7.17041,0.295838 -5.43576,0.991542 1.27284,0.510485 2.06104,1.337858 1.75156,1.838607 -0.30948,0.500749 2.05342,1.214084 5.25089,1.58519 8.77948,1.018966 9.94721,2.487757 1.99233,2.505962 -3.68004,0.0084 -6.98241,-0.456219 -7.33859,-1.032537 z M 371.5,81.784364 c -4.59255,-2.651778 -7.23738,-7.190952 -5.44695,-9.348286 1.33269,-1.605791 4.52952,-1.920503 5.38861,-0.530481 0.82685,1.337881 5.54135,-1.138278 5.55054,-2.915263 0.005,-1.034926 1.02319,-1.506627 3.23673,-1.5 2.76575,0.0083 3.33126,-0.420674 3.94229,-2.990334 0.57292,-2.409339 0.67539,-2.08107 0.52045,1.667295 -0.10611,2.567012 -0.009,4.483416 0.21569,4.258676 0.22474,-0.224741 1.01253,0.09258 1.75063,0.70515 C 388.53454,72.688518 388.34776,76 386.38337,76 c -1.0841,0 -1.45631,0.613079 -1.12993,1.861145 1.02111,3.904733 -8.88942,6.731748 -13.75344,3.923219 z M 377.5,78 c -0.33992,-0.55 -1.26648,-1 -2.05902,-1 C 374.64844,77 374,77.45 374,78 c 0,0.55 0.92656,1 2.05902,1 1.13246,0 1.7809,-0.45 1.44098,-1 z m 5.7566,-0.873229 c 0.37675,-1.440701 0.0573,-1.76012 -1.38337,-1.383369 C 380.84295,76.012826 380,76.855779 380,77.616631 c 0,2.07218 2.69252,1.667168 3.2566,-0.48986 z M 295.25,81.337719 C 293.7572,80.735362 293.52333,72 295,72 c 0.55,0 1,1.575 1,3.5 0,2.78359 0.39264,3.5 1.91821,3.5 2.82908,0 5.14959,1.08128 4.51703,2.104785 -0.58311,0.943494 -5.06426,1.088767 -7.18524,0.232934 z m 11.37817,-0.864317 c -0.3222,-0.839629 -0.61758,-15.634034 -0.65641,-32.876457 -0.0573,-25.440026 -0.33806,-31.703044 -1.48938,-33.223402 -2.16076,-2.853357 -1.78679,-4.3763337 1.01762,-4.144234 l 2.5,0.206907 V 46.218108 C 308,65.898149 307.82314,82 307.60699,82 c -0.21616,0 -0.65663,-0.686969 -0.97882,-1.526598 z M 323.19495,76.5 c -0.0204,-3.3 0.19085,-5.434696 0.46941,-4.743769 0.27855,0.690926 0.91803,1.001869 1.42105,0.690983 C 325.58843,72.136327 326,73.483524 326,75.440983 326,77.398442 325.583,79 325.07332,79 c -0.50967,0 -1.13247,0.7875 -1.38399,1.75 -0.25153,0.9625 -0.474,-0.95 -0.49438,-4.25 z m 12.884,3.916667 c 0.048,-1.164943 0.28494,-1.4019 0.60416,-0.604167 0.28887,0.721875 0.25335,1.584375 -0.0789,1.916667 -0.33229,0.332291 -0.56864,-0.258334 -0.52522,-1.3125 z m -78.80992,-2.109658 c 0.97297,-0.253543 2.32297,-0.236869 3,0.03705 0.67703,0.273923 -0.11903,0.481368 -1.76903,0.460988 -1.65,-0.02038 -2.20394,-0.244498 -1.23097,-0.498042 z M 328,76.199365 c 0,-3.555544 2.11765,-8.181375 3.75,-8.191563 0.84943,-0.0053 1.25,1.754704 1.25,5.492198 0,5.2 -0.13636,5.5 -2.5,5.5 -2.07156,0 -2.5,-0.479958 -2.5,-2.800635 z M 272.58936,75.5 c 0.50001,-1.992211 0.24998,-2.50311 -1.23095,-2.515313 -1.12586,-0.0093 -1.42479,-0.304914 -0.75835,-0.75 0.60503,-0.404078 1.357,-1.409687 1.67105,-2.234687 0.38154,-1.002295 0.59719,-0.753442 0.64994,0.75 0.0524,1.492794 0.70059,2.25 1.92614,2.25 1.01595,0 2.31836,-1.0125 2.89423,-2.25 0.95897,-2.06072 1.10894,-2.09776 1.78272,-0.440302 0.51945,1.277851 -0.0922,2.673815 -2.08133,4.75 -3.54393,3.69906 -5.72092,3.896555 -4.85345,0.440302 z m 62.91001,-0.75 c -0.32519,-1.7875 -0.17319,-5.725 0.33778,-8.75 l 0.92904,-5.5 0.11691,8.75 c 0.1216,9.102015 -0.37171,11.062831 -1.38373,5.5 z M 69.5,76 c 0.339919,-0.55 1.041476,-1 1.559017,-1 C 71.576558,75 72,75.45 72,76 72,76.55 71.298442,77 70.440983,77 69.583524,77 69.160081,76.55 69.5,76 Z m 40.10699,-1.581787 c -0.33385,-0.869984 -0.57536,-3.682484 -0.5367,-6.25 0.0488,-3.242176 0.30369,-4.071555 0.83436,-2.715021 0.64702,1.653959 0.86605,1.443306 1.42971,-1.375 C 111.70046,62.247686 112,57.691927 112,53.954282 v -6.795718 l 6.25,-0.01005 c 3.4375,-0.0055 6.8125,-0.0412 7.5,-0.07928 0.6875,-0.03808 1.25,-1.227227 1.25,-2.642555 0,-1.851366 0.4609,-2.482614 1.64282,-2.25 C 132.66364,42.968018 133.02517,51 129.03996,51 c -1.05706,0 -2.15443,-0.3762 -2.4386,-0.836 -0.4134,-0.668888 -3.05606,-0.788296 -5.4738,-0.247333 -0.20485,0.04583 0.24162,0.823244 0.99215,1.727579 1.21786,1.467431 1.09661,1.575959 -1.12755,1.009231 -1.37069,-0.349259 -2.00227,-0.400872 -1.40351,-0.114697 0.64538,0.308462 0.98054,2.836311 0.82315,6.208391 l -0.26549,5.688073 -4.07316,-0.294091 L 112,63.847062 v 6.076469 c 0,5.807404 -1.09793,7.869601 -2.39301,4.494682 z M 64.5,72 C 64.160081,71.45 64.358524,71 64.940983,71 65.523442,71 66,71.45 66,72 66,72.55 65.801558,73 65.559017,73 65.316476,73 64.839919,72.55 64.5,72 Z m 5.3,-0.2 C 70.46,71.14 71,69.141558 71,67.359017 71,65.576476 71.45,63.839919 72,63.5 c 0.609772,-0.37686 1,1.128505 1,3.85765 0,2.644874 0.511321,4.682006 1.25,4.980069 0.6875,0.277413 -0.3025,0.539913 -2.2,0.583334 -2.683333,0.0614 -3.183333,-0.18772 -2.25,-1.121053 z m 70.95,-0.462281 c 0.6875,-0.277412 1.8125,-0.277412 2.5,0 0.6875,0.277413 0.125,0.504386 -1.25,0.504386 -1.375,0 -1.9375,-0.226973 -1.25,-0.504386 z M 152.63837,70.5 c 0.32811,-0.85503 1.81954,-1.5 3.46862,-1.5 1.9049,0 2.89301,0.512327 2.89301,1.5 0,1.045034 -1.05207,1.5 -3.46862,1.5 -2.67237,0 -3.33648,-0.344335 -2.89301,-1.5 z m -32.60941,-0.46094 c -0.80907,-0.511673 -1.168,-1.233353 -0.79762,-1.603735 0.37038,-0.370381 1.40199,0.05515 2.29247,0.945627 1.75951,1.759514 0.86761,2.152174 -1.49485,0.658108 z m 239.66122,-4.967895 c -2.0954,-3.528441 -3.179,-5.89181 -2.40799,-5.251932 C 359.00473,61.248814 360,60.38118 360,57.449965 c 0,-1.375698 -0.75879,-2.41513 -2,-2.739714 -1.538,-0.402195 -2.00721,-0.02488 -2.03121,1.633369 -0.025,1.729197 -0.52038,1.363972 -2.50047,-1.84362 -1.3581,-2.2 -2.25817,-4.5625 -2.00018,-5.25 0.258,-0.6875 0.0332,-1.25 -0.49952,-1.25 C 350.43588,48 350,47.155277 350,46.122837 c 0,-1.633262 0.58469,-1.81126 4.5,-1.369947 3.70035,0.417082 4.5,0.217553 4.5,-1.122838 0,-2.600872 1.81372,-1.890957 3.5,1.369948 0.88345,1.708395 1.10977,3 0.52568,3 C 362.46156,48 362,49.024992 362,50.277759 362,52.741992 365.12336,56 367.48575,56 c 1.70039,0 4.8818,5.596282 3.9961,7.029368 C 371.15191,63.563215 369.36069,64 367.50135,64 c -3.18347,0 -3.39872,0.218299 -3.69098,3.743256 L 363.5,71.486512 Z M 133.25,69.310674 c 0.9625,-0.251527 2.5375,-0.251527 3.5,0 0.9625,0.251528 0.175,0.457323 -1.75,0.457323 -1.925,0 -2.7125,-0.205795 -1.75,-0.457323 z m 146.41667,0.02266 C 279.3,68.966667 279,67.786567 279,66.710889 279,65.085802 279.25363,64.965602 280.5,66 c 0.825,0.684689 1.5,1.864789 1.5,2.622445 0,1.457071 -1.21652,1.827704 -2.33333,0.710888 z M 266,68 c -1.2819,-0.828426 -1.24555,-0.971601 0.25,-0.984687 C 267.2125,67.006891 268,67.45 268,68 c 0,1.21961 -0.11279,1.21961 -2,0 z M 62.916667,66.25 C 62.790906,63.609034 62.255179,61.008315 60.702253,55.5 57.948796,45.733335 57.909541,45.2341 59.749101,43.378281 c 1.668029,-1.68277 1.666556,-1.734428 -0.03111,-1.091427 -1.318312,0.499316 -2.033894,0.01245 -2.75,-1.871054 C 55.76207,37.243999 55.764357,37 57,37 c 0.55,0 1,1.128813 1,2.508474 0,2.24758 0.205414,2.380191 1.975041,1.27504 1.558499,-0.973299 2.233387,-0.975086 3.2,-0.0085 C 63.848768,41.448768 65.408442,42 66.640983,42 c 1.232541,0 2.543826,0.49001 2.913966,1.08891 1.108986,1.794377 3.410575,11.278899 2.868557,11.820917 C 72.146948,55.186385 71.661038,54.419811 71.343705,53.20633 71.026373,51.992848 70.369221,51 69.883369,51 69.397516,51 69,50.325 69,49.5 69,48.675 68.313862,48 67.475249,48 66.636636,48 65.539394,46.918713 65.036932,45.597139 63.225085,40.831619 61.998811,41.687067 62.035435,47.690983 62.07745,54.578498 63.556088,57.5 67,57.5 c 2.000183,0 2.564696,0.564668 2.823599,2.824373 0.2443,2.132247 -0.16189,2.951331 -1.657546,3.342454 -1.08963,0.284945 -2.20562,1.376477 -2.479979,2.425627 -0.625442,2.391692 -2.657515,2.507292 -2.769407,0.157546 z m 15.743638,1.076972 c -1.09599,-1.095991 -0.740995,-2.494875 0.446829,-1.76076 0.735289,0.454434 0.893211,0.01024 0.470199,-1.322558 -0.430929,-1.357737 -0.10572,-2.210651 1.00549,-2.637063 1.307232,-0.501632 1.398113,-0.924636 0.44531,-2.072693 C 78.998038,57.087783 80.743857,45.568428 83.614037,42.471453 84.926316,41.05548 86,38.834959 86,37.536962 c 0,-1.678468 0.505371,-2.286068 1.75,-2.104002 1.996601,0.292065 2.890357,3.053244 1.305368,4.03282 C 87.32983,40.532222 87.738468,47 89.531385,47 c 0.842261,0 1.821938,0.7875 2.177058,1.75 0.355121,0.9625 1.05474,2.025502 1.554711,2.362227 0.541837,0.364921 0.548241,2.38464 0.01585,5 L 92.385826,60.5 91.681095,56.25 C 90.592631,49.685827 88.252381,50.647061 87.42049,58 c -0.611988,5.409263 -0.906663,6 -2.992952,6 -1.272772,0 -2.94251,0.897137 -3.710529,1.993639 -0.768019,1.096501 -1.693536,1.696501 -2.056704,1.333333 z M 82.683114,45.8125 c -0.319226,-0.797733 -0.556183,-0.560776 -0.604167,0.604167 -0.04342,1.054166 0.192928,1.644791 0.52522,1.3125 0.332291,-0.332292 0.367818,-1.194792 0.07895,-1.916667 z M 272,66.630484 C 272,65.03227 268.59473,58.613867 266.30411,55.894618 264.99877,54.345025 265.44155,51 266.952,51 c 0.40591,0 1.55251,0.9 2.548,2 1.6277,1.798589 1.64331,2 0.15499,2 -2.3303,0 -2.06553,2.079881 0.34501,2.710251 1.25796,0.328964 2,1.364016 2,2.789749 0,1.457222 0.74532,2.461642 2.08697,2.812493 1.34665,0.352156 1.96337,1.187614 1.73852,2.355148 C 275.39362,67.910187 272,68.764331 272,66.630484 Z M 277.15789,66 c 0,-1.375 0.22698,-1.9375 0.50439,-1.25 0.27741,0.6875 0.27741,1.8125 0,2.5 -0.27741,0.6875 -0.50439,0.125 -0.50439,-1.25 z M 14.006161,64.25 c 0.0034,-1.5125 0.676,-4.034335 1.494693,-5.604078 C 16.975551,55.818372 16.756422,54 14.940983,54 14.423442,54 14,55.376558 14,57.059017 c 0,4.00363 -1.587665,2.952456 -2.445272,-1.618986 -0.369599,-1.970132 -0.925819,-4.243504 -1.236045,-5.051938 -0.310225,-0.808434 -0.171339,-1.398189 0.308636,-1.310566 C 12.900981,49.492602 14,48.834852 14,47.059017 14,44.214023 12.329537,43.659284 11.597708,46.261247 10.565313,49.931849 9.0237287,46.119049 9.8690677,41.985804 10.322465,39.768939 10.858188,38.961526 11.348888,39.755496 11.771918,40.439973 12.821576,41 13.681462,41 14.875989,41 14.982089,40.683345 14.131121,39.657991 13.027924,38.32872 13.550489,37 15.176468,37 c 0.463723,0 1.947982,2.3625 3.298351,5.25 2.056557,4.397542 2.460898,4.813057 2.490199,2.559017 C 20.984258,43.328976 20.55,41.839919 20,41.5 19.45,41.160081 19,39.408524 19,37.60765 19,35.806776 18.733455,34.066788 18.407678,33.741011 18.081901,33.415234 17.690652,30.383985 17.538236,27.004902 17.385819,23.625819 16.752364,20.352364 16.130558,19.730558 15.508751,19.108751 15.013684,16.5525 15.030409,14.05 15.050776,11.002534 15.344835,9.9953409 15.920885,11 16.801066,12.535078 20.089576,27.510799 19.82759,28.790954 19.747781,29.180929 19.959581,30.175 20.298256,31 20.973101,32.643896 24,47.302277 24,48.926457 24,49.482382 23.325,49.678209 22.5,49.361626 21.316719,48.907559 21,49.653197 21,52.893011 21,55.151855 21.45,57 22,57 c 0.920364,0 1.40789,-1.416694 1.118421,-3.25 -0.06513,-0.4125 0.384063,-0.75 0.99821,-0.75 0.61516,0 0.887382,0.876654 0.606158,1.952053 -0.28076,1.073629 -0.03673,2.109966 0.542283,2.302971 C 26.39245,57.630817 23.141138,62 21.734115,62 c -0.451772,0 -2.034665,1.125 -3.517541,2.5 -3.442968,3.192501 -4.218022,3.146481 -4.210413,-0.25 z m 17.558802,-0.847191 c -0.80666,-3.213989 -0.06038,-4.345125 2.436033,-3.692298 2.532427,0.662245 2.58503,3.442416 0.09456,4.99774 -1.653078,1.032364 -1.987088,0.860061 -2.530593,-1.305442 z m 249.101707,0.930524 c -0.36667,-0.366666 -0.61035,-2.504166 -0.5415,-4.75 L 280.25033,55.5 280.99794,60 c 0.7909,4.760562 0.74155,5.406155 -0.33127,4.333333 z M 72.2,59.8 C 70.566794,58.166794 70.691808,57 72.5,57 c 0.833333,0 1.5,0.888889 1.5,2 0,2.331024 -0.186214,2.413786 -1.8,0.8 z m 311.87895,-1.383333 c 0.048,-1.164943 0.28494,-1.4019 0.60416,-0.604167 0.28887,0.721875 0.25335,1.584375 -0.0789,1.916667 -0.33229,0.332291 -0.56864,-0.258334 -0.52522,-1.3125 z m -61,-1 c 0.048,-1.164943 0.28494,-1.4019 0.60416,-0.604167 0.28887,0.721875 0.25335,1.584375 -0.0789,1.916667 -0.33229,0.332291 -0.56864,-0.258334 -0.52522,-1.3125 z M 43.475726,49 C 43.001654,44.875 42.588176,41.05 42.556888,40.5 42.5256,39.95 43.5125,39.356202 44.75,39.180449 46.643988,38.91146 47,38.243959 47,34.961834 47,31.906842 46.675279,31.187377 45.5,31.638374 44.242683,32.120851 44,30.902358 44,24.106989 c 0,-7.736044 0.102951,-8.10769 2.25,-8.122302 1.592071,-0.01083 1.86475,-0.259598 0.932514,-0.850726 -2.353192,-1.49215 4.182426,-3.544202 6.809723,-2.138116 2.089215,1.118114 2.104909,1.239329 0.403823,3.119007 -0.973427,1.075625 -2.316766,1.745817 -2.985198,1.489316 -1.961627,-0.752747 -2.192412,0.183001 -1.266925,5.136893 C 51.002241,27.335339 49.55081,36.621557 45.648929,51.5 l -1.311252,5 z M 262,53 c 0,-0.55 0.47656,-1 1.05902,-1 0.58246,0 0.7809,0.45 0.44098,1 -0.33992,0.55 -0.81648,1 -1.05902,1 C 262.19844,54 262,53.55 262,53 Z M 386.01531,46.690983 C 386.0056,41.736021 386.36548,39.107846 387,39.5 c 1.27958,0.790825 1.27958,11.51999 0,13.5 -0.67171,1.039396 -0.97408,-0.89791 -0.98469,-6.309017 z m -131.21198,5.583728 c -2.71943,-0.286226 -3.55031,-0.770502 -3.14301,-1.831897 0.42949,-1.119231 -0.42349,-1.447739 -3.80333,-1.464776 -4.24417,-0.02139 -12.01329,-2.803885 -13.2028,-4.728551 -0.3259,-0.527322 0.44252,-1.931162 1.7076,-3.119645 l 2.30015,-2.160877 1.82402,2.015517 C 241.51567,42.1223 241.80701,43 241.15499,43 240.51974,43 240,43.9 240,45 c 0,2.075093 0.91057,2.345636 6.80003,2.020389 1.81501,-0.100234 3.85841,0.281177 4.54088,0.847581 0.68248,0.566403 2.7596,1.297387 4.61582,1.624407 1.85623,0.327021 3.75033,0.826575 4.20911,1.11012 1.28823,0.796168 0.98574,2.417887 -0.41584,2.2294 -0.6875,-0.09246 -2.9135,-0.343191 -4.94667,-0.557186 z M 39,49.440983 c 0,-1.451367 0.432842,-2.291506 1,-1.940983 0.55,0.339919 1,1.491476 1,2.559017 C 41,51.126558 40.55,52 40,52 39.45,52 39,50.848442 39,49.440983 Z M 143.25,51.25845 C 146.9625,51.066043 150,50.479181 150,49.95431 150,49.42944 150.9,49 152,49 c 1.11111,0 2,0.666667 2,1.5 0,1.23397 -1.55184,1.465264 -8.75,1.30414 -8.27866,-0.18531 -8.38639,-0.214705 -2,-0.54569 z m 136.41667,0.07488 C 279.3,50.966667 279,50.201667 279,49.633333 c 0,-0.626604 0.46577,-0.567562 1.18333,0.15 0.65084,0.650834 0.95084,1.415834 0.66667,1.7 -0.28417,0.284167 -0.81667,0.216667 -1.18333,-0.15 z M 328.66119,48.25 c -1.01477,-5.606874 -0.0856,-23.720089 1.37228,-26.75 1.44075,-2.994364 1.44404,-2.988259 1.75271,3.25 0.23037,4.655658 0.67972,6.25 1.76154,6.25 0.94698,0 1.45228,1.043809 1.45228,3 0,1.65 0.45,3 1,3 0.55,0 1,0.701558 1,1.559017 0,0.857459 -0.45,1.280902 -1,0.940983 -0.62464,-0.386048 -1,1.656282 -1,5.440983 C 335,50.969926 334.9855,51 332.07946,51 c -2.39873,0 -3.00948,-0.491349 -3.41827,-2.75 z M 35,47 c 0,-1.111111 0.666667,-2 1.5,-2 0.833333,0 1.5,0.888889 1.5,2 0,1.111111 -0.666667,2 -1.5,2 C 35.666667,49 35,48.111111 35,47 Z m 119.63029,-1.25 c -0.85871,-3.204264 -0.80252,-3.469932 0.86971,-4.111626 1.15566,-0.443471 1.5,0.22064 1.5,2.893011 0,3.901419 -1.45081,4.647492 -2.36971,1.218615 z M 274,45.261536 c -2.28435,-2.264469 -2.31072,-2.38217 -0.30569,-1.36451 2.17706,1.104977 3.82823,2.956828 3.15583,3.539393 C 276.65756,47.603264 275.375,46.624567 274,45.261536 Z m 49.63948,2.044611 c -0.35171,-0.351714 -0.60395,-2.47698 -0.56053,-4.722814 0.0434,-2.245833 0.30685,-3.518029 0.58541,-2.827102 0.27855,0.690926 0.91803,1.001869 1.42105,0.690983 0.50302,-0.310887 0.91459,1.009752 0.91459,2.934752 0,3.416158 -1.07742,5.207282 -2.36052,3.924181 z m 1.04363,-2.493647 c -0.31922,-0.797733 -0.55618,-0.560776 -0.60416,0.604167 -0.0434,1.054166 0.19293,1.644791 0.52522,1.3125 0.33229,-0.332292 0.36781,-1.194792 0.0789,-1.916667 z M 256,45.5 c 0,-1.083333 -1.11111,-1.5 -4,-1.5 -2.2,0 -4,-0.471723 -4,-1.048274 0,-1.331933 6.3185,-4.041078 6.99495,-2.999182 0.27778,0.427842 1.51755,1.09387 2.75505,1.480062 2.47969,0.773849 2.89909,2.518307 1.05,4.367394 -1.63321,1.633206 -2.8,1.508192 -2.8,-0.3 z M 95,43.166667 C 95,41.425 95.458573,40 96.019052,40 c 0.604961,0 0.750972,1.117461 0.359324,2.75 C 95.436527,46.675986 95,46.807943 95,43.166667 Z m -56.921053,-0.75 c 0.04798,-1.164943 0.284941,-1.4019 0.604167,-0.604167 0.288871,0.721875 0.253344,1.584375 -0.07895,1.916667 -0.332292,0.332291 -0.568641,-0.258334 -0.52522,-1.3125 z M 345.51958,40.5 c -1.00463,-2.2 -1.74956,-4.511297 -1.65539,-5.136216 0.0942,-0.624919 -0.51174,-1.398296 -1.34648,-1.718615 C 340.32382,32.803296 340.65262,31 343,31 c 1.61905,0 2,-0.666667 2,-3.5 0,-3.044101 0.31795,-3.5 2.44098,-3.5 1.34254,0 2.72344,0.457025 3.06867,1.015612 C 351.68273,26.913698 351.67088,39 350.49594,39 c -0.61042,0 -1.56883,1.2375 -2.1298,2.75 l -1.01995,2.75 z M 67.710251,39 c 0.287656,-1.1 0.695528,-2 0.90638,-2 C 68.827484,37 69,37.9 69,39 c 0,1.1 -0.407871,2 -0.90638,2 -0.49851,0 -0.671025,-0.9 -0.383369,-2 z M 121,39.059017 c 0,-0.517541 0.45,-1.219098 1,-1.559017 0.55,-0.339919 1,0.08352 1,0.940983 C 123,39.298442 122.55,40 122,40 c -0.55,0 -1,-0.423442 -1,-0.940983 z m 136.8125,0.257869 c 0.72187,-0.288871 1.58438,-0.253344 1.91667,0.07895 0.33229,0.332292 -0.25834,0.568641 -1.3125,0.52522 -1.16495,-0.04798 -1.4019,-0.284941 -0.60417,-0.604167 z M 297,37.5 c -0.54794,-1.441192 -1.4471,-2.341713 -1.99813,-2.001157 C 294.37812,35.884343 294,33.997712 294,30.5 c 0,-3.089919 0.39901,-5.371431 0.88669,-5.070027 0.48768,0.301403 1.43867,-0.117085 2.11331,-0.929973 2.1449,-2.584451 3,-0.589227 3,7 0,7.765201 -1.32292,10.411047 -3,6 z m 56.49731,1.495642 c -0.72442,-1.172132 1.83819,-2.383809 3.71704,-1.757526 0.82833,0.276111 0.50837,0.839911 -0.90632,1.597034 -1.44146,0.771442 -2.39933,0.826137 -2.81072,0.160492 z M 246.33333,36.554014 c 0,-1.144661 0.43414,-1.220628 2.08334,-0.364546 3.1053,1.611936 3.151,1.810532 0.41666,1.810532 -1.51405,0 -2.5,-0.570268 -2.5,-1.445986 z M 37.693226,36.312646 c -0.37637,-0.608979 -0.394965,-2.553952 -0.04132,-4.322163 0.466823,-2.334115 0.864936,-2.818328 1.453091,-1.767352 0.969398,1.732218 -0.414772,7.702689 -1.411768,6.089515 z M 97,35.25 c 0,-1.145833 -0.521905,-2.257302 -1.15979,-2.46993 -0.845837,-0.281946 -0.869313,-0.905649 -0.08672,-2.304062 0.949707,-1.697031 1.154318,-1.484365 1.779828,1.849892 0.388719,2.072046 0.427744,4.046374 0.08672,4.387395 C 97.279017,37.054316 97,36.395833 97,35.25 Z m 146.68352,-1.632349 c -0.37594,-0.979674 -0.655,-2.531922 -0.62013,-3.449438 0.042,-1.104879 0.38931,-0.852929 1.02856,0.746105 0.53084,1.327874 0.8099,2.880122 0.62013,3.449438 -0.18977,0.569316 -0.65262,0.233569 -1.02856,-0.746105 z M 119,33 c 0,-0.55 -1.125,-1 -2.5,-1 -1.83333,0 -2.5,-0.533333 -2.5,-2 0,-1.466667 0.66667,-2 2.5,-2 1.55556,0 2.5,-0.566667 2.5,-1.5 0,-0.884352 -0.92347,-1.506285 -2.25,-1.515313 -3.16424,-0.02154 -4.48992,-1.094562 -4.92293,-3.984687 -0.206,-1.375 -0.88022,-2.402884 -1.49825,-2.284187 -0.62679,0.120379 -0.91501,-0.58224 -0.65176,-1.588878 0.41556,-1.589102 1.09021,-1.704427 5.64744,-0.965373 2.84652,0.461626 7.77155,0.555029 10.94451,0.207562 4.803,-0.525971 5.67563,-0.388424 5.21136,0.82144 -0.35114,0.915058 0.39987,1.889471 2.02805,2.631316 C 136.67766,21.265885 153,21.415043 153,20 c 0,-0.55 1.575,-1 3.5,-1 2.86407,0 3.5,0.373222 3.5,2.054116 0,1.991941 -0.40105,2.040195 -13.25,1.594225 -7.2875,-0.25294 -15.241,-0.782044 -17.67445,-1.175787 -3.52821,-0.570881 -4.669,-0.38145 -5.63173,0.935164 -1.06202,1.452397 -1.2779,1.467038 -1.79417,0.121672 C 121.32687,21.688226 120.60726,21 120.05052,21 c -1.49573,0 -0.028,9.334727 1.62132,10.31146 0.75362,0.446304 1.1092,1.233804 0.79018,1.75 C 121.6884,34.313197 119,34.26547 119,33 Z M 386.09968,22.25 C 386.03811,14.683547 386.38233,10 387,10 c 1.19117,0 1.19117,18.280584 0,22 -0.50227,1.568347 -0.83779,-2.065098 -0.90032,-9.75 z m -62.4602,9.056147 c -0.35171,-0.351714 -0.60395,-2.47698 -0.56053,-4.722814 0.0434,-2.245833 0.30685,-3.518029 0.58541,-2.827102 0.27855,0.690926 0.91803,1.001869 1.42105,0.690983 0.50302,-0.310887 0.91459,1.009752 0.91459,2.934752 0,3.416158 -1.07742,5.207282 -2.36052,3.924181 z m 1.04363,-2.493647 c -0.31922,-0.797733 -0.55618,-0.560776 -0.60416,0.604167 -0.0434,1.054166 0.19293,1.644791 0.52522,1.3125 0.33229,-0.332292 0.36781,-1.194792 0.0789,-1.916667 z M 54.5,28 c -0.375437,-1.182897 -0.457612,-2.375721 -0.182612,-2.650721 0.275,-0.275 0.807175,0.467824 1.182612,1.650721 0.375437,1.182897 0.457612,2.375721 0.182612,2.650721 C 55.407612,29.925721 54.875437,29.182897 54.5,28 Z m 31.298522,0.890299 C 85.5108,28.125635 85.966228,23.5625 86.810584,18.75 L 88.345776,10 H 95.647888 102.95 l -0.61864,3.25 c -0.8223,4.319906 -1.31395,4.726619 -1.41031,1.166667 L 100.84211,11.5 l -1.05533,3 c -1.506311,4.282028 -2.70418,5.5 -5.409225,5.5 -1.789523,0 -2.385421,0.556484 -2.409358,2.25 -0.01749,1.2375 -0.692492,3.123508 -1.5,4.19113 C 89.660688,27.508751 89,27.985243 89,27.5 c 0,-0.485243 -0.602628,-0.05812 -1.339173,0.949169 -1.056304,1.444581 -1.449673,1.53776 -1.862305,0.44113 z M 64.08102,26.151388 C 62.764996,23.692373 62.65416,19 63.912102,19 c 1.0027,0 2.60077,7.820462 1.768201,8.653031 -0.285044,0.285044 -1.004722,-0.390695 -1.599283,-1.501643 z m 168.58565,1.181945 C 231.73866,26.40533 231.82921,23 232.78189,23 c 0.43004,0 0.875,1.125 0.9888,2.5 0.21581,2.60758 0.0108,2.948105 -1.10402,1.833333 z M 237,25.689956 c 0,-0.801182 0.9262,-1.698901 2.05823,-1.994932 1.53471,-0.401337 1.97691,-0.115985 1.73851,1.121885 C 240.39389,26.908785 237,27.689195 237,25.689956 Z m 7.62041,-1.313673 c 0.53376,-2.126676 0.38533,-2.50228 -0.72457,-1.833478 -1.18729,0.715441 -1.19078,0.588316 -0.0234,-0.850847 C 245.05158,20.238318 245.02369,20 243.67446,20 c -1.32271,0 -1.39955,-0.490148 -0.48718,-3.107387 0.84959,-2.437125 0.79069,-3.288196 -0.27306,-3.945627 -2.13915,-1.322071 -0.60328,-1.958302 2.63605,-1.091973 2.41509,0.645896 2.94973,1.31959 2.94973,3.716934 0,3.930207 1.13869,4.576663 6.77957,3.848891 3.13238,-0.404131 5.28633,-0.196076 6.25,0.603702 2.54609,2.113066 1.62661,2.696882 -3.47534,2.206649 -6.08333,-0.584531 -9.49576,0.210338 -12.1051,2.819683 l -2,2 z m -145.541463,0.04038 c 0.04798,-1.164943 0.284941,-1.4019 0.604167,-0.604167 0.288871,0.721875 0.253344,1.584375 -0.07895,1.916667 -0.332292,0.332291 -0.568641,-0.258334 -0.52522,-1.3125 z M 265.55702,24.66535 c -1.45959,-1.067278 -1.51657,-1.454035 -0.35612,-2.417126 1.07449,-0.891742 1.6456,-0.723675 2.56983,0.756252 1.47295,2.358579 0.12428,3.370449 -2.21371,1.660874 z M 276,24 c 0,-0.55 -0.765,-1 -1.7,-1 -1.32222,0 -1.43333,-0.266667 -0.5,-1.2 0.66,-0.66 1.2,-2.235 1.2,-3.5 0,-2.936409 1.0788,-2.909471 3.90368,0.09747 2.1816,2.322201 2.19579,2.463489 0.45208,4.5 C 277.42521,25.152194 276,25.620442 276,24 Z M 6.1251665,21.75 C 6.0563249,20.7875 5.6047372,20 5.1216383,20 4.6385394,20 3.8106205,18.295469 3.2818186,16.212152 2.5623731,13.37776 2.6469881,12.119189 3.617974,11.212152 5.7504056,9.2201631 8.0077746,9.7640019 7.9258769,12.25 7.8149581,15.61693 6.2696202,23.769662 6.1251665,21.75 Z M 335.28975,18 c -0.41179,-1.574692 -1.36402,-2 -4.47781,-2 -2.17514,0 -4.56109,-0.606296 -5.30212,-1.347325 -2.66893,-2.668924 5.26893,-7.2919652 10.75372,-6.2630125 C 340.13579,9.116101 345.66511,14 342.6153,14 c -0.97466,0 -1.44438,0.467534 -1.07317,1.068174 0.3631,0.587495 1.28965,0.826618 2.05902,0.531384 3.23422,-1.241086 1.07447,1.158664 -2.43717,2.707994 C 336.3075,20.450227 335.92526,20.430214 335.28975,18 Z M 134.20297,15.802968 c -1.41579,-1.415792 -1.62029,-3.178922 -0.27207,-2.345673 0.512,0.316431 1.19371,0.150097 1.51492,-0.36963 0.70426,-1.139514 -16.72343,-1.915997 -19.52414,-0.869889 C 114.86475,12.612552 114,12.548197 114,12.074765 c 0,-0.473433 0.7118,-1.133932 1.58179,-1.467776 C 118.35576,9.5425138 160,9.9109809 160,11 c 0,0.555556 -2.66667,1 -6,1 -4.5531,0 -6,0.34695 -6,1.438727 0,0.959137 -1.58338,1.653844 -4.75,2.084059 -2.6125,0.354933 -5.44616,0.833841 -6.29703,1.064241 -0.85087,0.2304 -2.08837,-0.122426 -2.75,-0.784059 z M 60.638374,14.5 C 60.954956,13.675 61.390833,13 61.606989,13 61.823145,13 62,13.675 62,14.5 62,15.325 61.564123,16 61.031385,16 60.498646,16 60.321791,15.325 60.638374,14.5 Z M 294,13.059017 C 294,11.376558 294.45,10 295,10 c 0.55,0 1,1.098442 1,2.440983 0,1.342541 -0.45,2.719098 -1,3.059017 -0.58342,0.360575 -1,-0.656282 -1,-2.440983 z M 374.07895,12.25 c -0.0718,-2.047237 0.37695,-2.25 4.98007,-2.25 3.11803,0 4.82189,0.383668 4.44098,1 -0.33992,0.55 -2.35398,1 -4.47568,1 -2.15045,0 -4.08087,0.553187 -4.36204,1.25 -0.27741,0.6875 -0.53991,0.2375 -0.58333,-1 z M 44,12.606989 c 0,-0.216156 0.675,-0.652033 1.5,-0.968615 C 46.325,11.321791 47,11.498646 47,12.031385 47,12.564123 46.325,13 45.5,13 44.675,13 44,12.823145 44,12.606989 Z M 57.361626,11.5 C 57.730941,10.537583 57.321298,9.9717062 56.218615,9.9210526 55.121707,9.8706644 54.964349,9.6555898 55.783622,9.3265119 57.154156,8.7760086 60,10.663123 60,12.122445 60,12.6051 59.276855,13 58.393011,13 57.375419,13 56.997137,12.449843 57.361626,11.5 Z m 208.000004,0 c -0.31659,-0.825 -1.27746,-1.5 -2.13529,-1.5 -0.85782,0 -1.28982,-0.2698491 -0.96001,-0.5996647 0.7547,-0.7546963 7.50797,1.4254527 8.27876,2.6726197 C 270.86021,12.58283 269.95235,13 268.52763,13 c -1.42472,0 -2.84942,-0.675 -3.166,-1.5 z M 249.5235,11.190169 C 248.22896,9.8956232 249.24167,9 252,9 c 1.65,0 3,0.3975403 3,0.8834228 0,0.9982672 -4.67054,2.1127032 -5.4765,1.3067462 z"
       id="path2"
       sodipodi:nodetypes="ssscsssssssssssssscsssssssssssssssssssssssssssssssssssssssssssssssssscssssssssssssssssssssssssssscssssssssssssssssssssssssssssssssssssscssssssssssssccsssssssssscccssssssssssssssssssssssssssssssssssssssssssssscssssssssssssssssssssssscssssssssssssssssssssssssssscsssssssssssssssssssssssssssssssssssssssssssssssssssssssssssssssssscssssssssssssssssssssssssssssscssssssssssssssscsssssssssssssssssssssssssssssssssssssssssssssssssssssssssssssssssssssssssssssssssssssscssssssssssssssssssssssssssssssssssssssssssssssssssssssssssssssssssssssssssssssssssssssssssssscccsscssssssssssssssssssssssssssssssscsssssssssssssssssssssssssssssssssssssssssssssssssssssssssssssssssssssssssssssssss" />
    <path
       style="fill:#083c62;fill-opacity:1;stroke-width:0.5"
       d="m 248,82.95619 c -5.82494,-1.30104 -11.18983,-4.127505 -14.926,-7.86367 -1.79477,-1.794775 -3.72577,-4.169895 -4.29111,-5.27805 l -1.02789,-2.014825 4.1225,-2.233565 c 2.26737,-1.22846 5.20095,-2.751675 6.51905,-3.384925 l 2.39655,-1.15136 2.03438,2.38002 c 1.11891,1.30901 3.12633,2.93336 4.46095,3.60966 6.49883,3.293205 16.33245,2.07749 19.66728,-2.43143 1.47521,-1.9946 1.35329,-5.42612 -0.25392,-7.146585 -1.83171,-1.960774 -3.40067,-2.59551 -11.10272,-4.491671 C 251.69458,51.988546 247.0375,50.735198 245.25,50.164573 234.39062,46.697922 229.07925,40.18477 229.21387,30.5 c 0.12412,-8.929372 4.47669,-15.584568 12.80047,-19.572289 9.05592,-4.338465 19.42614,-4.1999857 28.54538,0.381183 4.56575,2.293662 7.3007,4.714925 10.30749,9.125257 1.59541,2.340131 1.86195,3.027895 1.31659,3.397197 -0.37609,0.254674 -3.29501,1.788479 -6.48649,3.408454 l -5.80269,2.945409 -2.12837,-2.168653 c -3.22104,-3.282005 -6.37785,-4.795391 -10.68178,-5.120897 -4.80485,-0.363389 -8.71983,0.729526 -10.59465,2.957626 -1.18018,1.402559 -1.31955,1.928517 -1.12683,4.252459 0.37141,4.478704 2.58872,5.904425 12.63701,8.125531 14.62676,3.233146 20.78329,6.667913 24.11793,13.455529 1.26622,2.577389 1.38207,3.295165 1.38207,8.563194 0,5.442005 -0.0865,5.93252 -1.61395,9.157525 -2.84174,5.99975 -8.78955,10.642235 -16.53522,12.906355 -4.6296,1.35327 -12.81169,1.656165 -17.35083,0.64231 z"
       id="path24"
       sodipodi:nodetypes="ssscsscsssssssssssscssssssscss" />
    <path
       style="fill:#083c62;fill-opacity:1;stroke-width:0.5"
       d="M 293.25,45.6875 V 8.625 l 1.5625,0.3125 c 0.85937,0.171875 4.34687,0.3125 7.75,0.3125 H 308.75 V 46 82.75 H 301 293.25 Z"
       id="path25"
       sodipodi:nodetypes="ccsscccccc" />
    <path
       style="fill:#083c62;fill-opacity:1;stroke-width:0.5"
       d="m 373,83.035335 c -1.84371,-0.674518 -3.38001,-1.78388 -5.96255,-5.296322 C 363.74438,73.260204 358.75017,64.874109 349.2483,48.5 343.66293,38.874996 338.82445,30.704103 338.49613,30.342451 c -0.46382,-0.510909 -0.67873,5.175862 -0.9637,25.5 -0.20171,14.386654 -0.41302,26.204039 -0.46958,26.260864 -0.0566,0.05683 -3.42918,0.26049 -7.49473,0.452585 l -7.39191,0.34927 0.1619,-34.248933 0.16189,-34.24893 1.85339,-2.261427 c 2.3705,-2.8923914 4.79484,-4.0458122 9.04785,-4.304674 3.9749,-0.2419344 6.97955,0.6924967 8.9798,2.79267 1.38913,1.458539 9.4004,14.666054 21.83108,35.991124 4.20791,7.21875 7.81781,13.125 8.02201,13.125 0.7516,0 1.00884,-7.260358 1.01231,-28.571506 0.003,-17.014241 0.14124,-21.865745 0.62856,-22.0223218 0.34375,-0.1104491 3.83125,-0.112945 7.75,-0.00555 l 7.125,0.19527 -0.009,29.3270518 c -0.01,33.251452 -0.28806,37.917632 -2.41916,40.570138 -2.99438,3.726985 -8.90312,5.408955 -13.32217,3.792249 z"
       id="path26"
       sodipodi:nodetypes="csssssscccssssscssccscc" />
    <path
       style="fill:#083c62;fill-opacity:1;stroke-width:0.5"
       d="m 117.29279,81.707255 c -3.03689,-0.596005 -5.82346,-2.56718 -7.06249,-4.995875 -1.52038,-2.98019 -1.96411,-10.203135 -1.9635,-31.96138 7.5e-4,-26.767302 0.62426,-30.990064 4.93343,-33.41195 2.91862,-1.6403585 7.77212,-2.0225539 28.6068,-2.2526841 l 18.80702,-0.2077337 0.31797,3.7616228 c 0.17489,2.068892 0.31798,5.338851 0.31798,7.266576 v 3.504953 l -14.125,-0.322829 c -7.76875,-0.177556 -16.00834,-0.561643 -18.3102,-0.853527 -2.30186,-0.291884 -4.28261,-0.433282 -4.40168,-0.314218 -0.42043,0.420432 -0.75717,12.499218 -0.42303,15.173662 l 0.33875,2.711217 4.83558,-0.285129 c 14.294,-0.842843 22.71881,-1.251877 25.96058,-1.260414 L 158.75,38.25 v 7.326315 7.326315 l -10.875,-0.349854 c -10.18281,-0.327585 -19.13686,-0.969896 -22.20696,-1.592994 -1.30763,-0.265393 -1.33829,-0.211274 -1.67815,2.962329 -0.38926,3.634866 -0.0718,14.162679 0.44263,14.677074 0.18407,0.184075 8.59956,0.08847 18.70108,-0.212455 10.10152,-0.30093 18.39815,-0.51105 18.43697,-0.466935 0.0388,0.04411 0.19428,3.15498 0.34547,6.91304 0.23451,5.82875 0.16302,6.87577 -0.48646,7.125 -1.20213,0.4613 -41.68045,0.23149 -44.13679,-0.25058 z"
       id="path27"
       sodipodi:nodetypes="ssssscsscsssscsscccsssssssss" />
    <path
       style="fill:#083c62;fill-opacity:1;stroke-width:0.5"
       d="M 23.669177,83.1591 C 20.846132,82.40733 17.784132,79.466935 16.232172,76.01746 14.191794,71.4824 13.669376,69.358155 7.772664,41.619598 1.4952969,12.090416 1.0357229,9.7976103 1.3343508,9.4989825 1.4556074,9.3777259 4.892279,9.2528038 8.971399,9.2213779 c 5.249261,-0.040441 7.524059,0.1167651 7.784372,0.5379597 0.202285,0.3273034 1.98478,8.7278494 3.9611,18.6678794 4.269536,21.473913 6.933833,33.702988 7.623467,34.991583 0.276266,0.516205 0.685393,0.745655 0.90917,0.50988 C 29.473285,63.692905 31.375288,56.075 33.476181,47 c 4.991246,-21.560142 7.027602,-29.291467 8.57866,-32.570134 1.973882,-4.172443 5.356546,-6.1825861 10.394769,-6.1770776 3.805815,0.00416 6.1489,0.845722 8.275455,2.9722766 3.03989,3.03989 4.072935,6.372597 10.75745,34.704572 4.413975,18.708408 4.749885,20.004628 5.09475,19.659768 0.412095,-0.4121 0.946945,-3.006905 6.1927,-30.043746 C 85.48626,21.545772 87.93233,9.8676691 88.20568,9.5943193 88.834305,8.9656939 102.67856,8.978566 103.30836,9.6083615 103.83006,10.130061 101.66271,21.142062 95.94905,47 89.264225,77.25307 88.821265,78.615 84.8001,81.27851 79.019125,85.107665 72.143635,84.32411 67.623645,79.32102 64.999325,76.41621 63.457865,71.126215 56.238695,40.25 54.5348,32.9625 52.97141,26.81736 52.76449,26.594134 52.325205,26.120235 51.482225,29.381849 46.456677,51 42.505109,67.998265 40.37812,75.521385 38.804085,78.067085 36.077111,82.47744 29.464187,84.702305 23.669177,83.1591 Z"
       id="path28"
       sodipodi:nodetypes="ssssssssssssssssssssssssss" />
  </g>
</svg>
